<svg width="106" height="87" viewBox="0 0 106 87" fill="none" xmlns="http://www.w3.org/2000/svg">
<g clip-path="url(#clip0_202_2)">
<path d="M24.3578 60.3544C24.461 59.2198 24.1859 58.3316 23.5327 57.6898C22.8794 57.0365 21.7792 56.7099 20.232 56.7099C19.2464 56.7099 18.4212 56.8245 17.7565 57.0537C17.1033 57.2829 16.5933 57.5981 16.2265 57.9992C15.8713 58.4003 15.6478 58.8645 15.5561 59.3917C15.453 59.8042 15.4587 60.1824 15.5733 60.5263C15.6994 60.8586 15.9343 61.1623 16.2781 61.4374C16.6334 61.7124 17.0975 61.9588 17.6706 62.1766C18.2551 62.3943 18.9484 62.5892 19.7507 62.7611L22.5012 63.3799C24.3807 63.7925 25.9566 64.3369 27.2287 65.0131C28.5123 65.6778 29.5208 66.4686 30.2543 67.3854C30.9878 68.3023 31.4691 69.328 31.6983 70.4626C31.939 71.5972 31.9447 72.8349 31.7155 74.1758C31.3258 76.4908 30.4262 78.4506 29.0165 80.0551C27.6069 81.6596 25.7675 82.8801 23.4983 83.7167C21.2291 84.5534 18.6046 84.9717 15.6249 84.9717C12.5763 84.9717 9.98626 84.519 7.85459 83.6136C5.73439 82.6967 4.19867 81.2985 3.24744 79.419C2.30768 77.528 2.07846 75.1156 2.55981 72.1817H11.6366C11.4991 73.259 11.6137 74.1643 11.9804 74.8978C12.3471 75.6313 12.9374 76.1871 13.7511 76.5653C14.5648 76.9435 15.579 77.1326 16.7938 77.1326C17.8253 77.1326 18.7078 77.0066 19.4412 76.7544C20.1747 76.5023 20.7535 76.1528 21.1775 75.7058C21.6015 75.2588 21.8594 74.7488 21.9511 74.1758C22.0428 73.6486 21.9511 73.1787 21.676 72.7662C21.401 72.3536 20.9025 71.9811 20.1804 71.6487C19.4584 71.3164 18.4671 71.0127 17.2064 70.7376L13.837 69.9812C10.8458 69.2936 8.58807 68.159 7.06381 66.5774C5.53956 64.9959 5.00091 62.8298 5.44787 60.0793C5.81461 57.833 6.73719 55.8733 8.2156 54.2C9.70547 52.5153 11.5965 51.2088 13.8886 50.2805C16.1922 49.3407 18.7421 48.8709 21.5385 48.8709C24.3807 48.8709 26.7588 49.3465 28.6727 50.2977C30.5981 51.2489 31.9791 52.5841 32.8157 54.3032C33.6638 56.0223 33.893 58.0393 33.5034 60.3544H24.3578ZM33.6323 84.5591L39.4772 49.3522H54.7427C57.4244 49.3522 59.6191 49.7132 61.3268 50.4352C63.0458 51.1572 64.2607 52.1772 64.9712 53.4952C65.6932 54.8132 65.9053 56.3661 65.6073 58.1539C65.3781 59.4375 64.8853 60.6122 64.1289 61.6781C63.3839 62.7324 62.4384 63.6263 61.2924 64.3598C60.1578 65.0818 58.8914 65.5804 57.4932 65.8554L57.4244 66.1992C58.9372 66.2451 60.2552 66.6233 61.3783 67.3338C62.5015 68.0329 63.3266 69.0071 63.8538 70.2563C64.381 71.494 64.5071 72.9381 64.232 74.5884C63.9111 76.5138 63.1261 78.2271 61.8769 79.7285C60.6277 81.2298 59.006 82.4102 57.0118 83.2698C55.0177 84.1293 52.7485 84.5591 50.2043 84.5591H33.6323ZM44.4969 76.9263H48.9665C50.5481 76.9263 51.7916 76.6226 52.6969 76.0152C53.6138 75.4078 54.1582 74.5196 54.3301 73.3506C54.4676 72.5255 54.3988 71.8264 54.1238 71.2534C53.8487 70.6803 53.3846 70.2448 52.7313 69.9469C52.0781 69.6489 51.2586 69.4999 50.273 69.4999H45.6659L44.4969 76.9263ZM46.6973 63.5862H50.6168C51.442 63.5862 52.1984 63.4544 52.886 63.1908C53.5737 62.9273 54.141 62.5433 54.5879 62.0391C55.0349 61.5348 55.3157 60.9274 55.4303 60.2168C55.6022 59.1166 55.3386 58.28 54.6395 57.707C53.9519 57.1339 53.0236 56.8474 51.8546 56.8474H47.7975L46.6973 63.5862ZM65.9683 84.5591L71.8132 49.3522H81.3713L79.0333 63.5862H79.5147L92.4422 49.3522H103.582L89.1416 65.0303L98.012 84.5591H86.5973L80.9587 71.3565L77.0392 75.5511L75.5264 84.5591H65.9683Z" fill="#FFE600"/>
<path d="M3.94368 37.8189L9.78857 2.61203H19.3467L17.0775 16.3647H29.73L31.9992 2.61203H41.5573L35.7124 37.8189H26.1543L28.4235 24.0662H15.771L13.5018 37.8189H3.94368ZM40.2508 37.8189L46.0957 2.61203H71.4694L70.1629 10.3135H54.3473L53.3846 16.3647H67.8937L66.5872 24.0662H52.0781L51.1154 30.1174H66.8622L65.5557 37.8189H40.2508ZM70.3648 37.8189L76.2097 2.61203H85.7679L81.2295 30.1174H95.4635L94.157 37.8189H70.3648Z" fill="white"/>
</g>
<defs>
<clipPath id="clip0_202_2">
<rect width="106" height="86.8031" fill="white"/>
</clipPath>
</defs>
</svg>
