<svg width="90" height="90" viewBox="0 0 90 90" fill="none" xmlns="http://www.w3.org/2000/svg">
<path d="M80 1H10C5.02944 1 1 5.02944 1 10V80C1 84.9706 5.02944 89 10 89H80C84.9706 89 89 84.9706 89 80V10C89 5.02944 84.9706 1 80 1Z" fill="white"/>
<path d="M80 1H10C5.02944 1 1 5.02944 1 10V80C1 84.9706 5.02944 89 10 89H80C84.9706 89 89 84.9706 89 80V10C89 5.02944 84.9706 1 80 1Z" stroke="white" stroke-width="2"/>
<path d="M37.1169 42.2164C35.8845 42.2164 35.1023 43.0156 34.8591 44.0752H39.2439C39.0951 42.9053 38.273 42.2164 37.1169 42.2164Z" fill="#F72717"/>
<path d="M25.3979 42.6811C23.8298 42.6811 22.8406 43.7587 22.8406 45.2649C22.8406 46.753 23.8479 47.8668 25.3979 47.8668C26.9478 47.8668 27.9914 46.8072 27.9914 45.2649C27.9914 43.7226 26.946 42.6811 25.3979 42.6811Z" fill="#F72717"/>
<path d="M57.0429 40.2094C54.689 40.2094 52.8559 41.146 52.5564 43.5779C52.5347 43.5797 52.571 43.5779 52.5492 43.5779C51.8087 32.5575 43.0825 23.8442 31.8336 23.8442C22.9441 23.8442 15.3341 29.2884 12.1689 37.0108H19.7063L19.3142 39.5386H13.3994V42.2164H18.7552L18.3451 44.6519H13.3994V46.2141C13.3994 47.1616 13.8096 47.6082 14.5936 47.6082H19.65L19.2398 50.1359H13.6408C13.3686 50.1359 13.109 50.1106 12.8622 50.0672V50.069C12.8622 50.069 11.893 49.9642 11.2923 49.1867C11.2778 49.1686 11.0327 48.8793 10.913 48.4038C10.8821 48.279 10.8785 48.2718 10.8549 48.1741C10.8948 48.4888 10.962 48.9119 10.9928 49.0674C11.1634 49.9497 11.3794 50.6965 11.3994 50.7489C13.9148 59.6376 22.1074 66.1558 31.8336 66.1558C41.783 66.1558 50.188 59.3374 52.4911 50.1378H49.6362V44.9702C49.6362 43.5761 49.0954 42.6829 47.7142 42.6829C46.3331 42.6829 45.7922 43.5761 45.7922 44.9702V50.1378H42.9373V44.2632C42.9373 41.4552 44.99 40.2112 47.7142 40.2112C50.4384 40.2112 52.4911 41.457 52.4911 44.2632L52.4893 50.1378H55.3623V44.9702C55.3623 43.5761 55.7362 42.6829 57.0974 42.6829C57.5275 42.6829 58.0484 42.8131 58.2353 42.9053L58.7762 40.4137C58.4622 40.3757 57.66 40.2094 57.0429 40.2094ZM30.8644 44.6899C30.8644 48.241 28.7555 50.3222 25.2654 50.3222C22.0366 50.3222 19.8533 48.1651 19.8533 45.2649C19.8533 42.2345 21.9241 40.2076 25.0222 40.2076C26.4396 40.2076 27.485 40.7645 28.0077 41.3232V37.0108H30.8626V44.6899H30.8644ZM38.0679 48.185C38.9082 48.185 39.685 47.9427 40.4146 47.6082L40.1768 49.8575C39.3565 50.192 38.3673 50.3222 37.3782 50.3222C34.0932 50.3222 31.7792 48.4074 31.7792 45.1546C31.7792 42.3285 33.85 40.2094 37.0225 40.2094C40.6051 40.2094 42.3965 42.4768 42.3221 45.9719H34.9335C35.213 47.572 36.743 48.185 38.0679 48.185Z" fill="#F72717"/>
<path d="M63.5186 40.2094C60.3461 40.2094 58.2753 42.3285 58.2753 45.1546C58.2753 48.4074 60.5893 50.3222 63.8743 50.3222C64.8634 50.3222 65.8526 50.192 66.6729 49.8575L66.9107 47.6082C66.1829 47.9427 65.4043 48.185 64.5658 48.185C63.2409 48.185 61.7109 47.572 61.4314 45.9719H68.8218C68.8926 42.4768 67.1012 40.2094 63.5186 40.2094ZM61.3534 44.077C61.5966 43.0174 62.3806 42.2182 63.6111 42.2182C64.7691 42.2182 65.5894 42.9053 65.7382 44.077H61.3534Z" fill="#F72717"/>
<path d="M77.2902 37.0108V41.3232C76.7675 40.7663 75.7221 40.2076 74.3047 40.2076C71.2066 40.2076 69.1358 42.2345 69.1358 45.2649C69.1358 48.1651 71.3191 50.3222 74.5479 50.3222C78.038 50.3222 80.1469 48.2392 80.1469 44.6899V37.0108H77.2902ZM74.6768 47.8686C73.1286 47.8686 72.1195 46.753 72.1195 45.2667C72.1195 43.7605 73.1087 42.6829 74.6768 42.6829C76.2249 42.6829 77.2703 43.7244 77.2703 45.2667C77.2721 46.809 76.2267 47.8686 74.6768 47.8686Z" fill="#F72717"/>
</svg>
