<svg fill="none" height="66" viewBox="0 0 80 66" width="80" xmlns="http://www.w3.org/2000/svg"><g fill="#f72717"><path d="m32.1169 30.2163c-1.2324 0-2.0146.7992-2.2578 1.8588h4.3848c-.1488-1.1699-.9709-1.8588-2.127-1.8588z"/><path d="m20.3979 30.6812c-1.5681 0-2.5573 1.0776-2.5573 2.5838 0 1.4881 1.0073 2.6019 2.5573 2.6019 1.5499 0 2.5935-1.0596 2.5935-2.6019s-1.0454-2.5838-2.5935-2.5838z"/><path d="m52.043 28.2094c-2.3539 0-4.187.9366-4.4865 3.3685-.0217.0018.0146 0-.0072 0-.7405-11.0204-9.4667-19.7337-20.7156-19.7337-8.8895 0-16.4995 5.4442-19.66472 13.1666h7.53742l-.3921 2.5278h-5.91482v2.6778h5.35582l-.4101 2.4355h-4.94572v1.5622c0 .9475.4102 1.3941 1.1942 1.3941h5.05642l-.4102 2.5277h-5.59902c-.2722 0-.5318-.0253-.7786-.0687v.0018s-.9692-.1048-1.5699-.8823c-.0145-.0181-.2596-.3074-.3793-.7829-.0309-.1248-.0345-.132-.0581-.2297.0399.3147.1071.7378.1379.8933.1706.8823.3866 1.6291.4066 1.6815 2.5154 8.8887 10.70802 15.4069 20.43422 15.4069 9.9494 0 18.3544-6.8184 20.6575-16.018h-2.8549v-5.1676c0-1.3941-.5408-2.2873-1.922-2.2873-1.3811 0-1.922.8932-1.922 2.2873v5.1676h-2.8549v-5.8746c0-2.808 2.0527-4.052 4.7769-4.052s4.7769 1.2458 4.7769 4.052l-.0018 5.8746h2.873v-5.1676c0-1.3941.3739-2.2873 1.7351-2.2873.4301 0 .951.1302 1.1379.2224l.5409-2.4916c-.314-.038-1.1162-.2043-1.7333-.2043zm-26.1785 4.4805c0 3.5511-2.1089 5.6323-5.599 5.6323-3.2288 0-5.4121-2.1571-5.4121-5.0573 0-3.0304 2.0708-5.0573 5.1689-5.0573 1.4174 0 2.4628.5569 2.9855 1.1156v-4.3124h2.8549v7.6791zm7.2035 3.4951c.8403 0 1.6171-.2423 2.3467-.5768l-.2378 2.2493c-.8203.3345-1.8095.4647-2.7986.4647-3.285 0-5.599-1.9148-5.599-5.1676 0-2.8261 2.0708-4.9452 5.2433-4.9452 3.5826 0 5.374 2.2674 5.2996 5.7625h-7.3886c.2795 1.6001 1.8095 2.2131 3.1344 2.2131z"/><path d="m58.5187 28.2095c-3.1725 0-5.2433 2.1191-5.2433 4.9452 0 3.2528 2.314 5.1676 5.599 5.1676.9891 0 1.9783-.1302 2.7986-.4647l.2378-2.2493c-.7278.3345-1.5064.5768-2.3449.5768-1.3249 0-2.8549-.613-3.1344-2.2131h7.3904c.0708-3.4951-1.7206-5.7625-5.3032-5.7625zm-2.1652 3.8676c.2432-1.0596 1.0272-1.8588 2.2577-1.8588 1.158 0 1.9783.6871 2.1271 1.8588z"/><path d="m72.2901 25.0107v4.3124c-.5227-.5569-1.5681-1.1156-2.9855-1.1156-3.0981 0-5.1689 2.0269-5.1689 5.0573 0 2.9002 2.1833 5.0573 5.4121 5.0573 3.4901 0 5.599-2.083 5.599-5.6323v-7.6791zm-2.6134 10.8578c-1.5482 0-2.5573-1.1156-2.5573-2.6019 0-1.5062.9892-2.5838 2.5573-2.5838 1.5481 0 2.5935 1.0415 2.5935 2.5838.0018 1.5423-1.0436 2.6019-2.5935 2.6019z"/></g></svg>