<svg fill="none" height="66" viewBox="0 0 80 66" width="80" xmlns="http://www.w3.org/2000/svg" xmlns:xlink="http://www.w3.org/1999/xlink"><linearGradient id="a" gradientUnits="userSpaceOnUse" x1="39.5" x2="39.5" y1="2.99997" y2="63"><stop offset="0" stop-color="#3b9cdb"/><stop offset=".286458" stop-color="#7d0eb1"/><stop offset=".583333" stop-color="#e70777"/><stop offset=".786458" stop-color="#ff612f"/><stop offset="1" stop-color="#e5007d"/></linearGradient><path clip-rule="evenodd" d="m39.0375 3.15377c-15.7407 1.8599-24.9034 18.24993-17.9697 32.14393 6.7333 13.4926 25.1475 16.7967 36.3657 6.5252l.5784-.5297-4.2193-4.1121-4.2191-4.1122-.3419.2837c-2.5425 2.1102-4.792 2.9174-7.8809 2.8275-7.5955-.221-12.7024-7.7538-9.932-14.6503 1.3275-3.3049 4.2788-5.793 7.8462-6.6149 1.2326-.2841 4.2393-.3117 4.6978-.0432.0345.0202-1.5011 1.5688-3.4124 3.4413-3.6113 3.5379-3.7751 3.7192-4.2379 4.6922-2.345 4.9297 2.9953 10.0059 8.0317 7.6344 1.0342-.4868 1.0218-.4754 8.3766-7.6686 6.7553-6.6065 6.8838-6.7429 7.2512-7.6955.9177-2.3791-.1792-4.4648-3.8625-7.34423-4.7573-3.7189-11.0732-5.4864-17.0719-4.7775zm20.7786 46.24173c-1.4083.7261-.8895 2.7691.7033 2.7691.9355 0 1.4806-.5319 1.4806-1.4446 0-1.1154-1.1898-1.837-2.1839-1.3245zm-39.4538 3.4581c-4.5008 1.2048-4.4764 7.5692.0335 8.7388 1.3412.3478 3.1882-.0515 4.153-.8979l.3258-.2859-.8575-.841-.8576-.8408-.3268.2127c-.4666.3036-.822.3964-1.3887.3627-2.6763-.1592-2.6529-4.0156.0253-4.161l.5182-.0281-.7136.711c-.8226.8193-.8952.933-.8952 1.4049 0 .8714.9904 1.4528 1.779 1.0444.4136-.2141 3.056-2.8883 3.1153-3.1525.3174-1.417-2.767-2.8411-4.9107-2.2673zm8.3247.1474c-1.4781.3796-2.7667 1.6488-3.1448 3.0976-.0922.3534-.1124 1.0103-.1124 3.666v3.2354h1.1844 1.1846v-.9359-.9358l.4996.1881c2.402.9043 5.2618-.5371 5.9043-2.9757.8517-3.2327-2.2032-6.1901-5.5157-5.3397zm9.1796 0c-2.3098.5932-3.7471 3.035-3.1448 5.3427.6347 2.4323 3.502 3.8763 5.9024 2.9727l.4997-.1881v.2135.2135h1.1845 1.1844l.0066-2.1852c.0082-2.719.0053-2.7943-.1248-3.2934-.589-2.2595-3.1396-3.6838-5.508-3.0757zm7.9836-.0133c-2.4075.8391-2.62 3.9943-.3467 5.1473.3766.191.4568.2023 1.6981.2392 1.4465.0431 1.5711.0808 1.5325.4645-.0386.3825-.1653.4028-2.5207.4039l-2.1284.0011v1.1593 1.1592l2.5725-.0215 2.5725-.0215.3953-.2033c2.089-1.0735 2.1272-3.8834.0675-4.9684l-.4628-.2439-1.3028-.0371c-1.4468-.0414-1.5713-.079-1.5325-.4629.0375-.3731.1943-.4028 2.1321-.4043 1.6042-.0012 1.7585-.0125 1.9809-.1448.7304-.4346.7304-1.5889 0-2.0234-.3034-.1806-4.1609-.2165-4.6575-.0434zm7.551 0c-2.4075.8391-2.62 3.9943-.3468 5.1473.3766.191.4568.2023 1.6981.2392 1.4466.0431 1.5712.0808 1.5325.4645-.0384.3825-.1653.4028-2.5207.4039l-2.1283.0011v1.1593 1.1592l2.5725-.0215 2.5724-.0215.3954-.2033c2.0889-1.0735 2.1272-3.8834.0676-4.9684l-.463-.2439-1.3028-.0371c-1.4468-.0414-1.5711-.079-1.5325-.4629.0375-.3731.1943-.4028 2.1321-.4043 1.941-.0014 2.0592-.0276 2.3694-.5238.3272-.5239.1363-1.3322-.3885-1.6444-.3034-.1806-4.1609-.2165-4.6574-.0434zm5.9338 4.2334v4.3342h1.1844 1.1844v-4.3342-4.3341h-1.1844-1.1844zm-28.5929-1.7649c1.9078.9277 1.2546 3.7153-.8705 3.7153-2.177 0-2.7756-2.8807-.7822-3.7641.4607-.2042 1.1757-.1831 1.6527.0488zm9.1795 0c1.9079.9277 1.2547 3.7153-.8705 3.7153-2.177 0-2.7756-2.8807-.7821-3.7641.4607-.2042 1.1756-.1831 1.6526.0488z" fill="url(#a)" fill-rule="evenodd"/></svg>