<svg fill="none" height="37" viewBox="0 0 207 37" width="207" xmlns="http://www.w3.org/2000/svg"><path d="m.94368 35.8189 5.84489-35.20687h9.55813l-2.2692 13.75267h12.6525l2.2692-13.75267h9.5581l-5.8449 35.20687h-9.5581l2.2692-13.7527h-12.6525l-2.2692 13.7527zm36.30712 0 5.8449-35.20687h25.3737l-1.3065 7.70147h-15.8156l-.9627 6.0512h14.5091l-1.3065 7.7015h-14.5091l-.9627 6.0512h15.7468l-1.3065 7.7015zm30.114 0 5.8449-35.20687h9.5582l-4.5384 27.50537h14.234l-1.3065 7.7015z" fill="#fff"/><path d="m123.043 11.4835c.103-1.1346-.172-2.0228-.826-2.6646-.653-.6533-1.753-.9799-3.3-.9799-.986 0-1.811.1146-2.476.3438-.653.2292-1.163.5444-1.53.9455-.355.4011-.578.8653-.67 1.3925-.103.4125-.098.7907.017 1.1346.126.3323.361.636.705.9111.355.275.819.5214 1.392.7392.585.2177 1.278.4126 2.08.5845l2.751.6188c1.879.4126 3.455.957 4.727 1.6332 1.284.6647 2.293 1.4555 3.026 2.3723.734.9169 1.215 1.9426 1.444 3.0772.241 1.1346.246 2.3723.017 3.7132-.389 2.315-1.289 4.2748-2.699 5.8793-1.409 1.6045-3.249 2.825-5.518 3.6616-2.269.8367-4.894 1.255-7.873 1.255-3.049 0-5.639-.4527-7.771-1.3581-2.12-.9169-3.656-2.3151-4.607-4.1946-.94-1.891-1.169-4.3034-.687-7.2373h9.076c-.137 1.0773-.023 1.9826.344 2.7161s.957 1.2893 1.771 1.6675 1.828.5673 3.043.5673c1.031 0 1.914-.126 2.647-.3782.733-.2521 1.312-.6016 1.736-1.0486s.682-.957.774-1.53c.092-.5272 0-.9971-.275-1.4096-.275-.4126-.774-.7851-1.496-1.1175-.722-.3323-1.713-.636-2.974-.9111l-3.369-.7564c-2.991-.6876-5.249-1.8222-6.773-3.4038-1.525-1.5815-2.063-3.7476-1.616-6.4981.366-2.2463 1.289-4.206 2.767-5.8793 1.49-1.6847 3.381-2.9912 5.673-3.9195 2.304-.939801 4.854-1.4096 7.65-1.4096 2.842 0 5.221.4756 7.134 1.4268 1.926.9512 3.307 2.2864 4.143 4.0055.849 1.7191 1.078 3.7361.688 6.0512zm9.274 24.2047 5.845-35.2069h15.265c2.682 0 4.877.361001 6.585 1.083 1.719.722 2.933 1.742 3.644 3.06.722 1.318.934 2.8709.636 4.6587-.229 1.2836-.722 2.4583-1.478 3.5242-.745 1.0543-1.691 1.9482-2.837 2.6817-1.134.722-2.401 1.2206-3.799 1.4956l-.069.3438c1.513.0459 2.831.4241 3.954 1.1346 1.123.6991 1.948 1.6733 2.476 2.9225.527 1.2377.653 2.6818.378 4.3321-.321 1.9254-1.106 3.6387-2.355 5.1401-1.25 1.5013-2.871 2.6817-4.865 3.5413-1.995.8595-4.264 1.2893-6.808 1.2893zm10.865-7.6328h4.469c1.582 0 2.825-.3037 3.731-.9111.917-.6074 1.461-1.4956 1.633-2.6646.137-.8251.069-1.5242-.206-2.0972-.276-.5731-.74-1.0086-1.393-1.3065-.653-.298-1.473-.447-2.458-.447h-4.607zm2.2-13.3401h3.92c.825 0 1.581-.1318 2.269-.3954.687-.2635 1.255-.6475 1.702-1.1517.447-.5043.727-1.1117.842-1.8223.172-1.1002-.092-1.9368-.791-2.5098-.687-.5731-1.616-.8596-2.785-.8596h-4.057zm19.271 20.9729 5.845-35.2069h9.558l-2.338 14.234h.481l12.928-14.234h11.14l-14.441 15.6781 8.871 19.5288h-11.415l-5.639-13.2026-3.919 4.1946-1.513 9.008z" fill="#ffe600"/></svg>