<svg fill="none" height="512" viewBox="0 0 512 512" width="512" xmlns="http://www.w3.org/2000/svg" xmlns:xlink="http://www.w3.org/1999/xlink"><radialGradient id="a" cx="0" cy="0" gradientTransform="matrix(0 256 -256 0 256 256)" gradientUnits="userSpaceOnUse" r="1"><stop offset="0" stop-color="#3c3c3c"/><stop offset="1"/></radialGradient><path d="m0 0h512v512h-512z" fill="url(#a)"/><path d="m160.394 317.784c.372-4.1-.621-7.31-2.982-9.629-2.361-2.36-6.336-3.541-11.927-3.541-3.561 0-6.543.414-8.945 1.243-2.361.828-4.204 1.967-5.529 3.416-1.284 1.45-2.091 3.127-2.422 5.032-.373 1.491-.352 2.857.062 4.1.455 1.201 1.304 2.298 2.547 3.292 1.283.994 2.961 1.884 5.031 2.671 2.112.787 4.618 1.491 7.517 2.112l9.939 2.237c6.792 1.491 12.486 3.458 17.083 5.901 4.638 2.402 8.282 5.259 10.933 8.572 2.65 3.313 4.389 7.02 5.218 11.12.869 4.1.89 8.572.062 13.418-1.408 8.365-4.659 15.447-9.753 21.244-5.094 5.798-11.74 10.209-19.94 13.232s-17.684 4.535-28.451 4.535c-11.016 0-20.375-1.636-28.078-4.908-7.6612-3.313-13.2105-8.365-16.6478-15.157-3.3959-6.833-4.2241-15.551-2.4848-26.152h32.7986c-.497 3.893-.082 7.164 1.243 9.815 1.325 2.65 3.458 4.659 6.398 6.025 2.94 1.367 6.605 2.05 10.995 2.05 3.727 0 6.916-.455 9.567-1.366 2.65-.912 4.741-2.175 6.274-3.79 1.532-1.615 2.464-3.458 2.795-5.528.331-1.905 0-3.603-.994-5.094s-2.795-2.837-5.404-4.038-6.191-2.298-10.747-3.292l-12.175-2.734c-10.809-2.484-18.967-6.584-24.4753-12.299-5.5079-5.715-7.4543-13.542-5.8392-23.481 1.3252-8.117 4.6589-15.199 10.0015-21.245 5.383-6.088 12.216-10.809 20.499-14.163 8.324-3.396 17.538-5.094 27.643-5.094 10.271 0 18.864 1.719 25.78 5.156 6.957 3.437 11.947 8.262 14.97 14.474 3.065 6.212 3.893 13.5 2.485 21.866zm33.513 87.464 21.121-127.221h55.162c9.69 0 17.621 1.305 23.791 3.914 6.212 2.609 10.602 6.295 13.17 11.057 2.609 4.762 3.375 10.374 2.298 16.834-.828 4.639-2.609 8.883-5.342 12.735-2.692 3.81-6.109 7.04-10.25 9.69-4.1 2.609-8.676 4.411-13.728 5.405l-.249 1.242c5.467.166 10.229 1.532 14.288 4.1 4.058 2.526 7.04 6.046 8.945 10.56 1.905 4.473 2.36 9.691 1.367 15.654-1.16 6.958-3.997 13.149-8.511 18.574s-10.374 9.691-17.58 12.797c-7.205 3.106-15.405 4.659-24.599 4.659zm39.26-27.581h16.151c5.715 0 10.208-1.098 13.479-3.293 3.314-2.195 5.281-5.404 5.902-9.628.497-2.982.248-5.508-.746-7.579-.994-2.07-2.671-3.644-5.031-4.721-2.361-1.076-5.322-1.615-8.883-1.615h-16.648zm7.951-48.205h14.163c2.982 0 5.715-.476 8.2-1.429 2.485-.952 4.535-2.339 6.15-4.162 1.615-1.822 2.629-4.017 3.043-6.584.622-3.976-.331-6.999-2.857-9.07-2.485-2.07-5.839-3.106-10.063-3.106h-14.661zm69.636 75.786 21.12-127.221h34.539l-8.449 51.435h1.74l46.713-51.435h40.254l-52.18 56.653 32.053 70.568h-41.247l-20.375-47.708-14.163 15.157-5.467 32.551z" fill="#ffe600"/><path d="m86.6271 236.353 21.1209-127.22h34.538l-8.2 49.695h45.72l8.2-49.695h34.538l-21.12 127.22h-34.539l8.2-49.695h-45.72l-8.2 49.695zm131.1959 0 21.121-127.22h91.688l-4.721 27.829h-57.15l-3.479 21.866h52.429l-4.721 27.83h-52.429l-3.478 21.866h56.901l-4.721 27.829zm108.818 0 21.12-127.22h34.539l-16.4 99.391h51.435l-4.721 27.829z" fill="#fff"/></svg>