<svg fill="none" height="512" viewBox="0 0 512 512" width="512" xmlns="http://www.w3.org/2000/svg" xmlns:xlink="http://www.w3.org/1999/xlink"><radialGradient id="a" cx="0" cy="0" gradientTransform="matrix(0 256 -256 0 256 256)" gradientUnits="userSpaceOnUse" r="1"><stop offset="0" stop-color="#3c3c3c"/><stop offset="1"/></radialGradient><path d="m0 0h512v512h-512z" fill="url(#a)"/><path d="m179.586 304.887c.298-3.28-.497-5.848-2.386-7.703-1.888-1.888-5.069-2.832-9.541-2.832-2.85 0-5.235.331-7.157.993-1.888.663-3.362 1.574-4.422 2.734-1.027 1.159-1.674 2.501-1.939 4.025-.298 1.193-.281 2.286.05 3.28.365.961 1.044 1.839 2.038 2.634 1.027.795 2.368 1.507 4.025 2.137 1.69.629 3.694 1.192 6.013 1.689l7.951 1.789c5.434 1.193 9.989 2.767 13.667 4.721 3.71 1.922 6.626 4.208 8.746 6.858 2.12 2.651 3.512 5.616 4.174 8.896.696 3.28.713 6.858.05 10.734-1.126 6.692-3.727 12.358-7.802 16.996s-9.392 8.167-15.952 10.585c-6.56 2.419-14.147 3.628-22.761 3.628-8.812 0-16.3-1.309-22.462-3.926-6.129-2.65-10.569-6.692-13.319-12.126-2.716-5.466-3.379-12.44-1.987-20.922h26.239c-.398 3.115-.066 5.732.994 7.852 1.06 2.121 2.766 3.728 5.118 4.821 2.353 1.093 5.285 1.64 8.796 1.64 2.982 0 5.533-.365 7.654-1.094 2.12-.728 3.793-1.739 5.019-3.031s1.971-2.766 2.236-4.423c.265-1.524 0-2.882-.795-4.075s-2.236-2.269-4.323-3.23c-2.088-.961-4.953-1.839-8.598-2.634l-9.74-2.187c-8.647-1.987-15.174-5.267-19.58-9.839s-5.964-10.834-4.672-18.785c1.061-6.494 3.728-12.159 8.001-16.996 4.307-4.87 9.774-8.647 16.4-11.331 6.659-2.716 14.031-4.075 22.114-4.075 8.217 0 15.091 1.375 20.624 4.125 5.566 2.75 9.558 6.61 11.977 11.579 2.451 4.97 3.114 10.801 1.988 17.493zm26.81 69.971 16.897-101.776h44.129c7.753 0 14.097 1.043 19.034 3.131 4.969 2.087 8.481 5.035 10.535 8.845 2.087 3.81 2.7 8.3 1.839 13.468-.663 3.711-2.087 7.106-4.274 10.188-2.153 3.048-4.887 5.632-8.2 7.752-3.28 2.087-6.941 3.528-10.982 4.324l-.199.993c4.373.133 8.183 1.226 11.43 3.28 3.246 2.021 5.632 4.837 7.156 8.449 1.524 3.578 1.888 7.752 1.093 12.523-.927 5.566-3.197 10.519-6.808 14.859s-8.299 7.752-14.064 10.237-12.324 3.727-19.679 3.727zm31.408-22.065h12.921c4.572 0 8.166-.878 10.784-2.633 2.65-1.756 4.224-4.324 4.721-7.703.397-2.386.198-4.407-.597-6.063-.795-1.657-2.137-2.916-4.025-3.777-1.889-.861-4.257-1.292-7.107-1.292h-13.318zm6.361-38.563h11.33c2.386 0 4.572-.381 6.56-1.143s3.628-1.872 4.92-3.33 2.104-3.214 2.435-5.268c.497-3.18-.265-5.599-2.286-7.255-1.988-1.657-4.671-2.485-8.051-2.485h-11.728zm55.708 60.628 16.897-101.776h27.631l-6.759 41.148h1.391l37.371-41.148h32.203l-41.744 45.322 25.643 56.454h-32.998l-16.3-38.166-11.331 12.126-4.373 26.04z" fill="#ffe600"/><path d="m120.572 239.743 16.897-101.777h27.63l-6.559 39.757h36.575l6.56-39.757h27.631l-16.897 101.777h-27.63l6.56-39.757h-36.576l-6.56 39.757zm104.957 0 16.896-101.777h73.351l-3.777 22.264h-45.72l-2.783 17.493h41.943l-3.777 22.263h-41.942l-2.783 17.493h45.521l-3.777 22.264zm87.054 0 16.897-101.777h27.63l-13.119 79.513h41.147l-3.776 22.264z" fill="#fff"/></svg>