<svg fill="none" height="60" viewBox="0 0 60 60" width="60" xmlns="http://www.w3.org/2000/svg" xmlns:xlink="http://www.w3.org/1999/xlink"><filter id="a" color-interpolation-filters="sRGB" filterUnits="userSpaceOnUse" height="22.3559" width="50.1531" x="5.72547" y="29.6281"><feFlood flood-opacity="0" result="BackgroundImageFix"/><feColorMatrix in="SourceAlpha" result="hardAlpha" type="matrix" values="0 0 0 0 0 0 0 0 0 0 0 0 0 0 0 0 0 0 127 0"/><feOffset dy=".706875"/><feGaussianBlur stdDeviation="1.76719"/><feComposite in2="hardAlpha" operator="out"/><feColorMatrix type="matrix" values="0 0 0 0 0 0 0 0 0 0 0 0 0 0 0 0 0 0 0.8 0"/><feBlend in2="BackgroundImageFix" mode="normal" result="effect1_dropShadow_10_2"/><feBlend in="SourceGraphic" in2="effect1_dropShadow_10_2" mode="normal" result="shape"/></filter><filter id="b" color-interpolation-filters="sRGB" filterUnits="userSpaceOnUse" height="21.9774" width="45.8236" x="6.61722" y="10.0396"><feFlood flood-opacity="0" result="BackgroundImageFix"/><feColorMatrix in="SourceAlpha" result="hardAlpha" type="matrix" values="0 0 0 0 0 0 0 0 0 0 0 0 0 0 0 0 0 0 127 0"/><feOffset dy=".706875"/><feGaussianBlur stdDeviation="1.76719"/><feComposite in2="hardAlpha" operator="out"/><feColorMatrix type="matrix" values="0 0 0 0 0 0 0 0 0 0 0 0 0 0 0 0 0 0 0.8 0"/><feBlend in2="BackgroundImageFix" mode="normal" result="effect1_dropShadow_10_2"/><feBlend in="SourceGraphic" in2="effect1_dropShadow_10_2" mode="normal" result="shape"/></filter><radialGradient id="c" cx="0" cy="0" gradientTransform="matrix(0 30 -30 0 30 30)" gradientUnits="userSpaceOnUse" r="1"><stop offset="0" stop-color="#353535"/><stop offset="1"/></radialGradient><clipPath id="d"><path d="m0 0h60v60h-60z"/></clipPath><g clip-path="url(#d)"><path d="m0 0h60v60h-60z" fill="url(#c)"/><g filter="url(#a)"><path d="m18.7961 37.3184c.0437-.4805-.0728-.8566-.3494-1.1284-.2766-.2766-.7425-.4149-1.3977-.4149-.4173 0-.7668.0485-1.0482.1456-.2767.0971-.4926.2305-.6479.4004-.1505.1698-.2451.3664-.2839.5896-.0437.1747-.0413.3349.0073.4805.0533.1407.1528.2693.2984.3858.1505.1165.347.2208.5897.313.2475.0922.5411.1747.8808.2475l1.1647.2621c.7959.1747 1.4632.4052 2.0019.6916.5436.2814.9706.6163 1.2812 1.0045.3106.3883.5145.8226.6115 1.3031.1019.4804.1044 1.0046.0073 1.5724-.165.9803-.546 1.8102-1.1429 2.4896s-1.3758 1.1963-2.3367 1.5506c-.961.3542-2.0723.5314-3.3341.5314-1.2909 0-2.3877-.1917-3.2904-.5751-.8978-.3883-1.5481-.9803-1.95092-1.7762-.39796-.8008-.49502-1.8224-.29119-3.0648h3.84361c-.0582.4562-.0097.8396.1456 1.1502s.4052.546.7498.7061c.3446.1602.7741.2403 1.2885.2403.4368 0 .8105-.0534 1.1211-.1602.3106-.1067.5556-.2548.7352-.444.1796-.1893.2888-.4053.3276-.6479.0388-.2233 0-.4222-.1165-.5969-.1165-.1748-.3276-.3325-.6333-.4732-.3058-.1408-.7255-.2694-1.2594-.3858l-1.4268-.3203c-1.2666-.2912-2.2227-.7717-2.8682-1.4414-.6454-.6697-.8735-1.587-.6842-2.7517.1553-.9512.5459-1.7811 1.172-2.4896.6309-.7134 1.4316-1.2667 2.4023-1.6598.9754-.3979 2.0552-.5969 3.2394-.5969 1.2035 0 2.2106.2014 3.021.6042.8153.4028 1.4001.9682 1.7544 1.6962.3591.7279.4562 1.5821.2912 2.5624zm3.9274 10.2497 2.4751-14.9087h6.4642c1.1357 0 2.065.1529 2.7881.4586.728.3058 1.2424.7377 1.5433 1.2958.3058.5581.3955 1.2157.2694 1.9728-.0971.5435-.3058 1.041-.6261 1.4923-.3154.4465-.7158.825-1.2011 1.1356-.4805.3058-1.0167.5169-1.6088.6334l-.0291.1455c.6406.0195 1.1987.1796 1.6743.4805.4756.296.825.7085 1.0482 1.2375.2233.5242.2767 1.1357.1602 1.8345-.1359.8153-.4683 1.5408-.9973 2.1766-.529.6357-1.2157 1.1356-2.0601 1.4996-.8445.364-1.8054.546-2.8828.546zm4.6007-3.2322h1.8927c.6697 0 1.1963-.1286 1.5797-.3858.3882-.2572.6187-.6333.6915-1.1283.0583-.3495.0292-.6455-.0873-.8882-.1165-.2426-.313-.427-.5897-.5532-.2766-.1262-.6236-.1893-1.0409-.1893h-1.951zm.9318-5.649h1.6597c.3495 0 .6698-.0558.961-.1674.2911-.1116.5314-.2742.7206-.4877.1893-.2136.3082-.4708.3567-.7717.0728-.4659-.0388-.8201-.3348-1.0628-.2912-.2426-.6843-.364-1.1793-.364h-1.718zm8.1604 8.8812 2.4751-14.9087h4.0475l-.9901 6.0275h.2039l5.4742-6.0275h4.7172l-6.1149 6.639 3.7563 8.2697h-4.8336l-2.3877-5.5908-1.6598 1.7763-.6406 3.8145z" fill="#ffe600"/></g><g filter="url(#b)"><path d="m10.1516 27.7757 2.4751-14.9086h4.0474l-.9609 5.8237h5.3578l.9609-5.8237h4.0475l-2.4751 14.9086h-4.0474l.9609-5.8237h-5.3578l-.9609 5.8237zm15.3745 0 2.4751-14.9086h10.7447l-.5532 3.2612h-6.6973l-.4076 2.5625h6.144l-.5533 3.2612h-6.144l-.4076 2.5625h6.6681l-.5533 3.2612zm12.7521 0 2.4751-14.9086h4.0474l-1.9218 11.6474h6.0275l-.5532 3.2612z" fill="#fff"/></g></g></svg>