<svg height="69" viewBox="0 0 215 69" width="215" xmlns="http://www.w3.org/2000/svg" xmlns:xlink="http://www.w3.org/1999/xlink"><linearGradient id="a" x1="48.743%" x2="52.403%" y1="76.002%" y2="-.583%"><stop offset="0" stop-color="#504678"/><stop offset=".302" stop-color="#504678" stop-opacity=".616"/><stop offset=".608" stop-color="#504678" stop-opacity=".283"/><stop offset=".852" stop-color="#504678" stop-opacity=".076"/><stop offset="1" stop-color="#504678" stop-opacity="0"/></linearGradient><linearGradient id="b" x1="13.702%" x2="57.382%" y1="66.341%" y2="41.255%"><stop offset="0" stop-color="#504678"/><stop offset=".179" stop-color="#504678" stop-opacity=".872"/><stop offset=".526" stop-color="#504678" stop-opacity=".536"/><stop offset="1" stop-color="#504678" stop-opacity="0"/></linearGradient><linearGradient id="c" x1="47.724%" x2="45.261%" y1="34.971%" y2="18.375%"><stop offset="0" stop-color="#504678"/><stop offset=".643" stop-color="#504678" stop-opacity=".332"/><stop offset="1" stop-color="#504678" stop-opacity="0"/></linearGradient><g fill="none"><path d="m25.965 68.979c-2.359518.000138-4.4869763-1.4205353-5.391-3.6l-20.127-48.588c-1.23137239-2.9729488.1802086-6.3812476 3.153-7.613l21.081-8.731c1.427502-.59156928 3.031562-.5917023 4.4591622-.00036977 1.4276001.59133253 2.5617461 1.7256699 3.1528378 3.15336977l20.127 48.59c1.2293734 2.9721201-.1818648 6.3782483-3.153 7.61l-21.081 8.735c-.703961.2925195-1.4586822.4433958-2.221.444zm.946-65.841c-.3532831.00058035-.7029735.07092623-1.029.207l-21.082 8.731c-.65899244.2729652-1.18253135.7965747-1.45540771 1.455604-.27287636.6590292-.2727297 1.3994749.00040771 2.058396l20.127 48.591c.5697254 1.3710026 2.1415732 2.0222862 3.514 1.456l21.081-8.737c.6589924-.2729652 1.1825313-.7965747 1.4554077-1.455604.2728764-.6590292.2727297-1.3994749-.0004077-2.058396l-20.127-48.586c-.4166185-1.00461024-1.3964296-1.66018436-2.484-1.662z" fill="#5a78ff"/><path d="m34.589 6.612h3.137v20.824h-3.137z" fill="url(#a)" opacity=".7" transform="matrix(.92387953 -.38268343 .38268343 .92387953 -3.762515 15.13256)"/><path d="m43.554 26.884h3.137v23.572h-3.137z" fill="url(#a)" opacity=".7" transform="matrix(-.92387953 .38268343 -.38268343 -.92387953 101.607661 57.12898)"/><path d="m44.523 35.724c-6.029 2.5-11.063 5.946-14.359 10.1l-8.498-20.524c3.8763064-4.5035648 8.8102786-7.9740794 14.359-10.1 6.029-2.5 12.12-3.71 17.295-3.005l8.5 20.523c-5.9256546-.4462711-11.869351.5866682-17.297 3.006z" fill="#5a78ff"/><g opacity=".4" transform="translate(21 11)"><path d="m23.523 24.724c-6.029 2.5-11.063 5.946-14.359 10.1l-8.498-20.524c3.87630641-4.50356478 8.81027864-7.97407941 14.359-10.1 6.029-2.5 12.12-3.71 17.295-3.005l8.5 20.523c-5.9256546-.4462711-11.869351.5866682-17.297 3.006z" fill="url(#b)" opacity=".9"/><path d="m23.523 24.724c-6.029 2.5-11.063 5.946-14.359 10.1l-8.498-20.524c3.87630641-4.50356478 8.81027864-7.97407941 14.359-10.1 6.029-2.5 12.12-3.71 17.295-3.005l8.5 20.523c-5.9256546-.4462711-11.869351.5866682-17.297 3.006z" fill="url(#c)" opacity=".7"/></g><path d="m47.292 41.981c-6.526 0-12.5 1.261-17.13 3.835v-20.752c5.304463-2.6767508 11.1905657-3.9945093 17.13-3.835 6.526 0 12.617 1.21 17.129 3.84v20.752c-5.3034902-2.6789527-11.1894138-3.9984661-17.129-3.84zm33.338.019 5.28-16.69c.0553988-.2311852.2530618-.4006107.49-.42h2.65c.237554.0333228.4374453.1947734.52.42l4.11 10.53c.08.21.29.23.36 0l4.08-10.53c.0825547-.2252266.282446-.3866772.52-.42h2.65c.236938.0193893.434601.1888148.49.42l5.22 16.69c.060766.128491.048783.2795775-.031479.3968829-.080261.1173054-.216744.1832081-.358521.1731171h-3.15c-.223333.0101554-.42163-.141732-.47-.36l-3.35-10.84c-.05-.21-.29-.21-.36 0l-4 10.76c-.0680971.2590483-.3021509.4397214-.57.44h-1.85c-.29 0-.44-.16-.55-.44l-4.08-10.76c-.08-.21-.29-.21-.34 0l-3.43 10.84c-.053263.2237181-.2605888.3760391-.49.36h-3c-.1352152-.0020643-.2597105-.074027-.3289864-.190166s-.0734437-.2598761-.0110136-.379834zm27.37-6c-.056877-2.8432853 1.612084-5.4383915 4.222786-6.5661073 2.610702-1.1277157 5.644197-.5638772 7.675314 1.4266176 2.031117 1.9904947 2.656117 5.0119816 1.581367 7.6449304-1.074749 2.6329488-3.635613 4.3539905-6.479467 4.3545593-1.850754.0630912-3.646568-.6347007-4.969168-1.9308488s-2.056525-3.0775003-2.030832-4.9291512zm10.4 0c-.125388-1.8699326-1.724549-3.2954097-3.596543-3.2059249s-3.327894 1.6609995-3.274345 3.5343661c.053549 1.8733667 1.596839 3.3591518 3.470888 3.3415588 1.946297-.0811752 3.458949-1.7236116 3.38-3.67zm9.76 5.49c-.26-.21-.49-.13-.49.23v.34c.000219.2629976-.207221.4792655-.47.49h-2.44c-.266257-.0102519-.479748-.2237425-.49-.49v-16.69c.010252-.2662575.223743-.4797481.49-.49h2.57c.262779.0107345.470219.2270024.47.49v4.76c0 .34.23.44.6.18.984247-.7372946 2.180229-1.1371242 3.41-1.14 3.56 0 6.29 3 6.29 6.86.081225 1.7637508-.551956 3.4857806-1.756402 4.7767969-1.204447 1.2910162-2.878458 2.0420085-4.643598 2.0832031-1.312288-.0140605-2.573071-.5126752-3.54-1.4zm6.4-5.46c.09842-1.287944-.532962-2.5224729-1.634827-3.1965494-1.101865-.6740766-2.488481-.6740766-3.590346 0-1.101865.6740765-1.733247 1.9086054-1.634827 3.1965494-.035063.9332388.306444 1.8414078.947735 2.5203113.641291.6789034 1.528544 1.0715619 2.462265 1.0896887.941636-.0208808 1.835879-.4172051 2.483799-1.1008082.647921-.6836031.995782-1.597789.966201-2.5391918zm5.69-9.93c0-1.1045695.895431-2 2-2s2 .8954305 2 2-.895431 2-2 2-2-.8954305-2-2zm.18 16v-12.1c-.000219-.2629976.207221-.4792655.47-.49h2.57c.135288-.0054096.267175.0431995.366593.135114.099417.0919145.158205.2195896.163407.354886v12.06c-.010252.2662575-.223743.4797481-.49.49h-2.61c-.262779-.0107345-.470219-.2270024-.47-.49zm6.43-3.96v-12.77c-.000219-.2629976.207221-.4792655.47-.49h2.57c.266257.0102519.479748.2237425.49.49v12.85c0 .83.36 1.38 1.27 1.38.129956 0 .254589.0516249.346482.1435177s.143518.2165262.143518.3464823v2.13c-.010735.2627786-.227002.4702192-.49.47-3.42 0-4.8-1.12-4.8-4.55zm6.25-2.06c.008932-2.4151154 1.305633-4.6420092 3.401651-5.8418319 2.096017-1.1998227 4.672914-1.1902927 6.76.025 2.087085 1.2152928 3.367281 3.4517165 3.358349 5.8668319 0 .47-.13.86-.6.86h-8.94c-.23 0-.31.13-.29.34.222124 1.5664403 1.622534 2.6911445 3.2 2.57.949238.0140736 1.855122-.3966915 2.47-1.12.190749-.2679907.501094-.4250329.83-.42h2.39c.42 0 .6.29.44.7-1.401958 2.8582278-4.58829 4.3738501-7.690308 3.658-3.102017-.7158502-5.301987-3.4744652-5.309692-6.658zm9.49-1.2c.18 0 .26-.08.23-.29-.272485-1.4353092-1.53928-2.4656359-3-2.44-1.428631-.0013689-2.670673.9798447-3 2.37-.05.18 0 .36.21.36zm6.19 7.18v-16.69c-.000219-.2629976.207221-.4792655.47-.49h8.19c3.74 0 6.29 2.18 6.29 5.85s-2.89 5.93-6.47 5.93h-4.34c-.132016-.0137481-.262983.0342414-.354862.1300303s-.134372.2286406-.115138.3599697v4.91c-.010252.2662575-.223743.4797481-.49.49h-2.7c-.266706-.0054441-.480056-.2232381-.48-.49zm8.48-8.42c1.549763-.048988 2.769263-1.3399601 2.73-2.89.02227-.7341983-.258913-1.4451427-.777362-1.9654833-.518448-.5203406-1.228363-.8041119-1.962638-.7845167h-4.37c-.31 0-.44.16-.44.47v4.73c0 .31.13.47.44.47zm7.73 2.36c-.067426-1.768551.577195-3.4902725 1.789533-4.7796737 1.212338-1.2894013 2.891119-2.0387709 4.660467-2.0803263 1.276857.0069615 2.507235.4799103 3.46 1.33.23.21.49.18.49-.13v-.34c0-.2595738.210426-.47.47-.47h2.44c.266257.0102519.479748.2237425.49.49v8.58c0 .65.23.94.68 1 .233408.0046716.424483.1870614.44.42v2.26c0 .2430053-.196995.44-.44.44-1.72 0-2.73-.49-3.3-1.48-.16-.26-.34-.31-.6-.05-1.098463 1.1307769-2.613651 1.7599957-4.19 1.74-1.77335-.0514406-3.451056-.815716-4.653687-2.1199772-1.20263-1.3042612-1.82859-3.0383281-1.736313-4.8100228zm10.4 0c.098283-1.2842803-.531222-2.5153655-1.629937-3.1875709-1.098715-.6722055-2.481411-.6722055-3.580126 0-1.098715.6722054-1.72822 1.9032906-1.629937 3.1875709-.098283 1.2842803.531222 2.5153655 1.629937 3.1875709 1.098715.6722055 2.481411.6722055 3.580126 0 1.098715-.6722054 1.72822-1.9032906 1.629937-3.1875709zm5.73 11.13v-2.13c.010735-.2627786.227002-.4702192.49-.47 1.673077.1252724 3.216074-.906143 3.74-2.5.087841-.3345259.052344-.6894926-.1-1l-4.78-10.82c-.082609-.1471234-.080016-.3272392.006794-.4719233.086811-.1446842.244516-.2317327.413206-.2280767h2.57c.26 0 .42.21.52.47l3 6.92c.21.55.55.52.78 0l2.86-6.94c.1-.26.23-.42.49-.42h2.47c.153964-.0080856.301349.063213.390578.1889446.089229.1257315.107878.2883913.049422.4310554l-4.92 11.64c-1.79 4.24-3.69 5.82-7.49 5.82-.266257-.0102519-.479748-.2237425-.49-.49z" fill="#5a78ff"/></g></svg>