<svg fill="none" height="90" viewBox="0 0 90 90" width="90" xmlns="http://www.w3.org/2000/svg" xmlns:xlink="http://www.w3.org/1999/xlink"><linearGradient id="a"><stop offset="0" stop-color="#504678"/><stop offset=".302" stop-color="#504678" stop-opacity=".616"/><stop offset=".608" stop-color="#504678" stop-opacity=".283"/><stop offset=".852" stop-color="#504678" stop-opacity=".076"/><stop offset="1" stop-color="#504678" stop-opacity="0"/></linearGradient><linearGradient id="b" gradientUnits="userSpaceOnUse" x1="47.1101" x2="46.4638" xlink:href="#a" y1="28.8881" y2="21.3887"/><linearGradient id="c" gradientUnits="userSpaceOnUse" x1="49.3798" x2="49.7852" xlink:href="#a" y1="34.2986" y2="42.7021"/><linearGradient id="d" gradientUnits="userSpaceOnUse" x1="41.693" x2="49.5444" y1="35.0127" y2="29.6898"><stop offset="0" stop-color="#504678"/><stop offset=".179" stop-color="#504678" stop-opacity=".872"/><stop offset=".526" stop-color="#504678" stop-opacity=".536"/><stop offset="1" stop-color="#504678" stop-opacity="0"/></linearGradient><linearGradient id="e" gradientUnits="userSpaceOnUse" x1="48.4053" x2="48.0544" y1="29.7699" y2="26.9792"><stop offset="0" stop-color="#504678"/><stop offset=".643" stop-color="#504678" stop-opacity=".332"/><stop offset="1" stop-color="#504678" stop-opacity="0"/></linearGradient><rect fill="#fff" height="88" rx="9" width="88" x="1" y="1"/><path d="m41.102 52.078c-1.1593.0001-2.2046-.7018-2.6488-1.7786l-9.8891-24.0053c-.605-1.4688.0886-3.1527 1.5492-3.7612l10.3578-4.3137c.7014-.2922 1.4896-.2923 2.191-.0001.7014.2921 1.2587.8525 1.5491 1.5579l9.8891 24.0063c.604 1.4684-.0894 3.1512-1.5492 3.7598l-10.3578 4.3156c-.3459.1445-.7167.219-1.0913.2193zm.4648-32.5292c-.1736.0002-.3454.035-.5056.1022l-10.3583 4.3136c-.3238.1349-.581.3936-.7151.7192s-.134.6914.0002 1.017l9.8891 24.0067c.2799.6774 1.0522.9992 1.7266.7194l10.3578-4.3166c.3238-.1349.581-.3936.7151-.7192.1341-.3255.134-.6914-.0002-1.0169l-9.8891-24.0043c-.2047-.4964-.6861-.8202-1.2205-.8211z" fill="#5a78ff"/><path d="m44.8642 21.36-1.424.5931 3.9154 9.5051 1.424-.5931z" fill="url(#b)" opacity=".7"/><path d="m52.0184 42.78 1.424-.5931-4.4322-10.7594-1.424.5931z" fill="url(#c)" opacity=".7"/><path d="m50.2202 35.6481c-2.9623 1.2352-5.4356 2.9377-7.0551 4.99l-4.1754-10.14c1.9046-2.2251 4.3288-3.9397 7.0551-4.99 2.9623-1.2352 5.955-1.833 8.4977-1.4847l4.1763 10.1396c-2.9115-.2205-5.8318.2898-8.4986 1.4851z" fill="#5a78ff"/><g opacity=".4"><path d="m50.2202 35.6481c-2.9623 1.2352-5.4356 2.9377-7.0551 4.99l-4.1754-10.14c1.9046-2.2251 4.3288-3.9397 7.0551-4.99 2.9623-1.2352 5.955-1.833 8.4977-1.4847l4.1763 10.1396c-2.9115-.2205-5.8318.2898-8.4986 1.4851z" fill="url(#d)" opacity=".9"/><path d="m50.2202 35.6481c-2.9623 1.2352-5.4356 2.9377-7.0551 4.99l-4.1754-10.14c1.9046-2.2251 4.3288-3.9397 7.0551-4.99 2.9623-1.2352 5.955-1.833 8.4977-1.4847l4.1763 10.1396c-2.9115-.2205-5.8318.2898-8.4986 1.4851z" fill="url(#e)" opacity=".7"/></g><path d="m51.5808 38.7394c-3.2065 0-6.1417.623-8.4166 1.8947v-10.2527c2.6063-1.3224 5.4983-1.9735 8.4166-1.8947 3.2064 0 6.1991.5978 8.416 1.8972v10.2527c-2.6057-1.3235-5.4977-1.9755-8.416-1.8972z" fill="#5a78ff"/><path d="m12.6218 68.832 2.5943-8.2458c.0272-.1143.1243-.198.2407-.2075h1.302c.1168.0164.215.0962.2555.2075l2.0194 5.2024c.0393.1037.1425.1136.1769 0l2.0047-5.2024c.0405-.1113.1387-.1911.2555-.2075h1.302c.1164.0095.2135.0932.2407.2075l2.5402 8.2458c.0299.0635.024.1381-.0154.1961-.0395.0579-.1065.0905-.1762.0855h-1.5329c-.1098.005-.2072-.07-.231-.1779l-1.641-5.3556c-.0246-.1037-.1425-.1037-.1769 0l-1.9653 5.3161c-.0335.128-.1485.2173-.2801.2174h-.8893c-.1305.0026-.2442-.0888-.2703-.2174l-2.0046-5.3161c-.0393-.1037-.1425-.1037-.1671 0l-1.6852 5.3556c-.0262.1106-.1281.1858-.2408.1779h-1.474c-.069.0044-.1351-.0291-.1727-.0874-.0377-.0583-.0412-.1326-.0091-.1942zm13.4429-2.9397c-.0279-1.4047.7921-2.6868 2.0748-3.244 1.2828-.5572 2.7732-.2786 3.7712.7048s1.305 2.4762.777 3.7771c-.5281 1.3008-1.7863 2.1511-3.1836 2.1514-.9094.0311-1.7917-.3136-2.4415-.954-.6499-.6404-1.0105-1.5204-.9979-2.4353zm5.1099 0c-.0535-.9245-.8333-1.6357-1.7535-1.5994-.9203.0363-1.6423.8067-1.6237 1.7326s.771 1.6663 1.6919 1.6652c.461-.0129.8978-.2098 1.2141-.5473.3162-.3374.4858-.7876.4712-1.2511zm4.8053 2.6976c-.1278-.1038-.2408-.0642-.2408.1136v.1828c.0001.13-.1018.2368-.2309.2421h-1.1989c-.1308-.005-.2357-.1105-.2407-.2421v-8.2606c.005-.1316.1099-.237.2407-.2421h1.2628c.1291.0053.231.1121.2309.2421v2.3319c0 .168.113.2174.2948.089.4836-.3643 1.0712-.5618 1.6755-.5633 1.7491 0 3.0905 1.4822 3.0905 3.3893.0412.8717-.2694 1.7233-.8615 2.3614-.592.6382-1.4154 1.0088-2.2831 1.0278-.6422-.0015-1.2613-.2407-1.7393-.6719zm3.1445-2.6976c.0484-.6363-.2618-1.2462-.8032-1.5792-.5414-.3331-1.2227-.3331-1.7641 0-.5414.333-.8516.9429-.8032 1.5792-.0173.4611.1505.9098.4656 1.2452s.7511.5294 1.2098.5384c.9561-.0243 1.7122-.8222 1.6902-1.7836zm2.7957-4.9109c0-.5457.44-.9881.9827-.9881s.9827.4424.9827.9881-.44.9881-.9827.9881-.9827-.4424-.9827-.9881zm.0885 7.9049v-5.9781c-.0001-.1299.1018-.2368.2309-.2421h1.2627c.1309.0051.2357.1106.2408.2421v5.9781c-.0051.1316-.1099.2371-.2408.2421h-1.2627c-.1291-.0053-.231-.1121-.2309-.2421zm3.1593-1.9762v-6.2844c-.0001-.13.1018-.2368.2309-.2421h1.2627c.1308.0051.2357.1105.2408.2421v6.3437c0 .4101.1769.6818.624.6818.1329 0 .2407.1084.2407.2421v1.0523c-.0052.1298-.1115.2323-.2407.2322-1.6804 0-2.3584-.5533-2.3584-2.2677zm3.0708-.9881c-.0468-1.223.5754-2.3737 1.6215-2.9992 1.0462-.6254 2.3488-.6254 3.3949 0 1.0462.6255 1.6684 1.7762 1.6215 2.9992 0 .2322-.0638.4249-.2948.4249h-4.3925c-.113 0-.1523.0642-.1425.1679.1089.7679.788 1.3215 1.5576 1.2698.4663.0069.9114-.196 1.2136-.5534.0937-.1324.2462-.21.4078-.2075h1.1595c.2064 0 .2948.1433.2162.3459-.6888 1.4121-2.2544 2.1609-3.7785 1.8072-1.5241-.3536-2.6051-1.7166-2.6089-3.2894zm4.6628-.5929c.0884 0 .1277-.0395.113-.1433-.1339-.7091-.7563-1.2181-1.474-1.2055-.702-.0006-1.3122.4841-1.474 1.171-.0246.0889 0 .1778.1032.1778zm3.0364 3.5572v-8.2606c-.0001-.13.1018-.2368.231-.2421h4.024c1.8376 0 3.0905 1.077 3.0905 2.8902s-1.42 2.9298-3.1789 2.9298h-2.1324c-.0649-.0068-.1293.0169-.1744.0642-.0451.0474-.066.113-.0566.1779v2.4406c-.005.1316-.1099.2371-.2407.2421h-1.3266c-.1311-.0027-.2359-.1103-.2359-.2421zm4.1666-4.1599c.3701-.0052.7227-.159.9793-.4273.2566-.2682.3958-.6285.3866-1.0006.0154-.3688-.1235-.7272-.3831-.9883-.2596-.261-.6161-.4007-.9828-.3851h-2.1472c-.1523 0-.2162.079-.2162.2322v2.3369c0 .1531.0639.2322.2162.2322zm3.7783 1.1659c-.0331-.8737.2836-1.7244.8793-2.3614s1.4205-1.0073 2.2898-1.0278c.6274.0034 1.2319.2371 1.7001.6571.113.1038.2407.0889.2407-.0642v-.1927c0-.1283.1034-.2322.2309-.2322h1.1989c.1308.005.2357.1105.2408.2421v4.2538c0 .3211.113.4644.3341.4941.1146.0023.2085.0924.2162.2075v1.1165c0 .1201-.0968.2174-.2162.2174-.8451 0-1.3414-.2421-1.6214-.7312-.0787-.1284-.1671-.1531-.2948-.0247-.5398.5587-1.2842.8696-2.0587.8597-.8696-.0255-1.6923-.4018-2.2829-1.044s-.8994-1.4963-.8568-2.37zm5.1099 0c.0483-.6345-.261-1.2427-.8008-1.5748-.5399-.3321-1.2192-.3321-1.7591 0-.5398.3321-.8491.9403-.8008 1.5748-.0483.6345.261 1.2428.8008 1.5749.5399.3321 1.2192.3321 1.7591 0 .5398-.3321.8491-.9404.8008-1.5749zm2.835 5.4643v-1.0424c.0053-.1299.1116-.2324.2408-.2323.8225.0638 1.5816-.4465 1.8376-1.2351.0431-.1653.0257-.3406-.0492-.4941l-2.3485-5.3457c-.0406-.0726-.0394-.1616.0033-.2331.0426-.0715.1201-.1145.203-.1127h1.2627c.1278 0 .2064.1038.2555.2322l1.474 3.4189c.1032.2717.2703.2569.3833 0l1.4052-3.4288c.0491-.1284.113-.2075.2408-.2075h1.2332c.0757-.004.1481.0313.1919.0934.0439.0621.053.1425.0243.2129l-2.4125 5.7657c-.8794 2.0948-1.813 2.8754-3.6801 2.8754-.0716.0044-.1416-.0223-.1923-.0733-.0508-.051-.0773-.1215-.073-.1935z" fill="#5a78ff"/><rect height="88" rx="9" stroke="#fff" stroke-width="2" width="88" x="1" y="1"/></svg>
