<svg xmlns="http://www.w3.org/2000/svg" xmlns:xlink="http://www.w3.org/1999/xlink" width="400" height="129"><defs><radialGradient id="b" cx="73.044%" cy="44.503%" r="29.163%" fx="73.044%" fy="44.503%" gradientTransform="matrix(.19185 -.74657 .98142 .14594 .153 .925)"><stop offset="0%" stop-color="#626262"/><stop offset="100%" stop-color="#FFF"/></radialGradient><radialGradient id="e" cx="61.725%" cy="52.493%" r="38.332%" fx="61.725%" fy="52.493%" gradientTransform="matrix(0 1 -1.64794 0 1.482 -.092)"><stop offset="0%" stop-color="#DAD7E2"/><stop offset="58.183%" stop-color="#D9D6E2"/><stop offset="100%" stop-color="#FFF" stop-opacity="0"/></radialGradient><path id="a" d="M49.947 5.866c-.637 0-1.281.122-1.903.384L8.913 22.579a4.973 4.973 0 0 0-2.703 2.723 5.011 5.011 0 0 0 0 3.849l37.362 90.877c1.054 2.565 3.987 3.786 6.521 2.723l39.132-16.33c2.545-1.063 3.757-4.01 2.704-6.574L54.567 8.97a5 5 0 0 0-4.62-3.105M48.2 129a10.835 10.835 0 0 1-10.01-6.725L.829 31.395a10.908 10.908 0 0 1 0-8.34 10.784 10.784 0 0 1 5.855-5.896L45.814.828c5.506-2.295 11.847.344 14.133 5.897l37.362 90.877c2.28 5.553-.345 11.94-5.853 14.238l-39.131 16.331c-1.35.563-2.75.829-4.125.829"/><path id="d" d="M83.215 67.023C71.988 71.713 62.616 78.197 56.477 86L40.654 47.43c6.713-8.154 15.51-14.285 26.737-18.975 11.23-4.69 22.57-6.972 32.205-5.647l15.825 38.568c-10.008-1.056-20.977.958-32.206 5.647"/><linearGradient id="c" x1="21.005%" x2="71.275%" y1="100%" y2="70.933%"><stop offset="0%" stop-color="#D3D0DD"/><stop offset="100%" stop-color="#FFF"/></linearGradient></defs><g fill="none" fill-rule="evenodd"><path fill="#FFF" d="M151.718 78.86h5.537c.437 0 .777-.195.923-.68l6.411-20.267c.097-.389.486-.389.632 0l7.625 20.12c.195.535.486.827 1.02.827h3.449c.485 0 .874-.243 1.068-.826l7.383-20.12c.146-.39.583-.39.68 0l6.266 20.265c.097.39.388.68.874.68h5.877c.583 0 .923-.437.729-1.068l-9.666-31.202c-.146-.437-.486-.777-.923-.777h-4.954c-.437 0-.826.388-.971.777l-7.626 19.683c-.146.438-.534.39-.68 0l-7.674-19.683c-.146-.389-.535-.777-.972-.777h-4.954c-.437 0-.777.34-.923.777l-9.86 31.202c-.194.68.146 1.069.729 1.069Zm63.093.632c-7.48 0-13.017-5.638-13.017-12.83 0-7.242 5.537-12.831 13.017-12.831 7.529 0 13.017 5.589 13.017 12.83 0 7.193-5.488 12.83-13.017 12.83Zm0-6.027c3.546 0 6.412-3.062 6.412-6.804 0-3.79-2.866-6.804-6.412-6.804-3.497 0-6.411 3.013-6.411 6.804 0 3.742 2.914 6.804 6.411 6.804Zm31.28 6.027c-2.866 0-4.809-1.167-6.606-2.625-.486-.389-.923-.243-.923.438v.631c0 .486-.388.924-.874.924h-4.566c-.485 0-.922-.438-.922-.924V46.735c0-.486.437-.923.922-.923h4.809c.486 0 .874.437.874.923v8.894c0 .632.437.826 1.117.34 1.457-1.07 3.595-2.138 6.363-2.138 6.654 0 11.754 5.637 11.754 12.83 0 7.193-5.197 12.83-11.948 12.83Zm-1.117-6.075c3.594 0 6.46-3.014 6.46-6.756 0-3.79-2.866-6.804-6.46-6.804-3.497 0-6.363 2.965-6.363 6.804 0 3.791 2.817 6.756 6.363 6.756Zm20.788-21.628c1.991 0 3.691-1.7 3.691-3.693s-1.7-3.694-3.691-3.694c-1.991 0-3.691 1.701-3.691 3.694 0 1.992 1.7 3.693 3.69 3.693Zm-2.477 27.07h4.808c.486 0 .923-.437.923-.923v-22.55c0-.486-.437-.924-.923-.924h-4.808c-.486 0-.874.438-.874.924v22.55c0 .486.388.924.874.924Zm20.06.244c.485 0 .922-.389.922-.875v-3.985a.922.922 0 0 0-.922-.924c-1.7 0-2.38-1.02-2.38-2.575V46.735c0-.486-.438-.923-.923-.923h-4.809c-.485 0-.874.437-.874.923v23.863c0 6.415 2.574 8.505 8.986 8.505Zm15.542.389c-7.383 0-12.628-5.395-12.628-12.734 0-7.387 5.44-12.927 12.725-12.927 7.237 0 12.531 5.637 12.531 13.025 0 .874-.242 1.603-1.117 1.603H293.69c-.437 0-.583.243-.534.632.34 2.77 2.768 4.812 5.925 4.812 2.089 0 3.595-.924 4.615-2.09.534-.583.971-.778 1.554-.778h4.468c.778 0 1.118.535.826 1.312-1.603 4.131-6.168 7.145-11.657 7.145Zm-5.148-14.97h10.248c.34 0 .486-.145.437-.534a5.638 5.638 0 0 0-5.537-4.568c-2.671 0-4.906 1.895-5.537 4.422-.097.34-.049.68.389.68Zm22.479 14.338c-.486 0-.875-.438-.875-.924V46.735c0-.486.389-.923.875-.923h15.3c6.993 0 11.753 4.082 11.753 10.935 0 6.707-5.391 11.08-12.094 11.08h-8.111c-.583 0-.874.34-.874.924v9.185c0 .486-.437.924-.923.924h-5.051Zm6.8-16.67h8.16c3.35 0 5.196-2.867 5.196-5.395 0-2.673-1.797-5.2-5.197-5.2h-8.16c-.582 0-.825.292-.825.875v8.845c0 .583.243.875.825.875Zm34.552 17.302c-6.509 0-11.949-5.492-11.949-12.83 0-7.388 5.537-12.831 12.046-12.831 2.768 0 4.711 1.069 6.46 2.478.437.39.923.34.923-.243v-.729a.87.87 0 0 1 .874-.875h4.566c.485 0 .922.438.922.924v16.087c0 1.215.438 1.75 1.263 1.798.437.048.826.34.826.777v4.229c0 .437-.34.826-.826.826-3.205 0-5.1-.924-6.168-2.77-.292-.486-.632-.584-1.117-.098-1.943 1.799-4.177 3.257-7.82 3.257Zm1.117-6.027c3.546 0 6.363-3.013 6.363-6.804 0-3.84-2.817-6.804-6.363-6.804-3.594 0-6.411 3.013-6.411 6.804 0 3.742 2.817 6.804 6.41 6.804Zm17.747 14.872c7.091 0 10.637-2.965 13.988-10.887l9.18-21.821c.243-.583-.194-1.167-.826-1.167h-4.614c-.486 0-.728.292-.923.778l-5.342 12.976c-.438 1.021-1.02 1.07-1.458.049l-5.585-12.928c-.194-.486-.486-.875-.972-.875h-4.808c-.583 0-1.069.535-.777 1.313l8.937 20.217c.291.68.388 1.215.194 1.944-.68 2.965-3.788 4.666-6.994 4.666-.486 0-.923.389-.923.875v3.937c0 .486.437.923.923.923Z"/><use xlink:href="#a" fill="#FFF"/><use xlink:href="#a" fill="url(#b)"/><use xlink:href="#d" fill="url(#c)"/><use xlink:href="#d" fill="url(#e)"/><path fill="#FFF" d="M88.55 78.848c-12.192-.002-23.35 2.349-32.008 7.143l.006-38.65c9.325-4.9 19.815-7.147 32.007-7.145 12.192.002 23.575 2.253 32.006 7.153L120.555 86c-8.875-4.798-19.813-7.15-32.005-7.152"/></g></svg>
