<svg fill="none" height="66" viewBox="0 0 80 66" width="80" xmlns="http://www.w3.org/2000/svg"><g fill="#253b80"><path d="m20.2116 49.8857h-4.0262c-.2755 0-.5098.1958-.5528.4618l-1.6284 10.097c-.0324.1992.1254.3789.3321.3789h1.9221c.2755 0 .5098-.1958.5528-.4624l.4392-2.7233c.0424-.2666.2773-.4623.5522-.4623h1.2745c2.6522 0 4.1828-1.2552 4.5826-3.7425.1801-1.0881.0076-1.9431-.5134-2.5419-.5722-.6575-1.5872-1.0053-2.9347-1.0053zm.4645 3.6877c-.2202 1.4129-1.324 1.4129-2.3914 1.4129h-.6075l.4262-2.6387c.0253-.1594.1666-.2769.3315-.2769h.2784c.7271 0 1.4129 0 1.7673.4053.2114.2419.2761.6011.1955 1.0974z"/><path d="m32.2468 53.5279h-1.928c-.1643 0-.3062.1175-.3315.277l-.0853.5274-.1349-.1912c-.4174-.5924-1.3481-.7905-2.2771-.7905-2.1305 0-3.9502 1.5782-4.3046 3.7919-.1843 1.1044.0777 2.1603.7182 2.8967.5875.6771 1.4282.9592 2.4284.9592 1.7167 0 2.6686-1.0796 2.6686-1.0796l-.0859.524c-.0324.2004.1254.38.3308.38h1.7367c.2761 0 .5093-.1958.5528-.4623l1.042-6.4537c.033-.1986-.1242-.3789-.3302-.3789zm-2.6875 3.6699c-.186 1.0773-1.0602 1.8004-2.1753 1.8004-.5598 0-1.0072-.1756-1.2945-.5084-.285-.3305-.3933-.8009-.3026-1.3248.1736-1.068 1.0626-1.8148 2.1605-1.8148.5475 0 .9926.1779 1.2858.5136.2937.3391.4103.8124.3261 1.334z"/><path d="m42.5149 53.5278h-1.9375c-.1848 0-.3585.0898-.4633.2401l-2.6721 3.8495-1.1327-3.6992c-.0712-.2315-.2897-.3904-.5369-.3904h-1.9039c-.2314 0-.3921.2211-.3185.4341l2.1341 6.1249-2.0063 2.77c-.1578.2182.0011.5182.2737.5182h1.9351c.1837 0 .3556-.0875.4598-.2349l6.444-9.097c.1542-.2176-.0041-.5153-.2755-.5153z"/></g><path d="m48.9296 49.8857h-4.0268c-.2749 0-.5092.1958-.5522.4618l-1.6284 10.097c-.0323.1992.1254.3789.3309.3789h2.0664c.1919 0 .3561-.1371.3862-.3236l.4621-2.8621c.0424-.2666.2773-.4623.5522-.4623h1.274c2.6527 0 4.1828-1.2552 4.5831-3.7425.1807-1.0881.007-1.9431-.514-2.5419-.5716-.6575-1.5859-1.0053-2.9335-1.0053zm.4645 3.6877c-.2196 1.4129-1.3234 1.4129-2.3913 1.4129h-.607l.4268-2.6387c.0253-.1594.1654-.2769.3309-.2769h.2784c.7265 0 1.4129 0 1.7673.4053.2114.2419.2755.6011.1949 1.0974z" fill="#179bd7"/><path d="m60.964 53.5279h-1.9269c-.1654 0-.3061.1175-.3308.277l-.0854.5274-.1354-.1912c-.4174-.5924-1.3475-.7905-2.2765-.7905-2.1306 0-3.9497 1.5782-4.3041 3.7919-.1837 1.1044.0771 2.1603.7177 2.8967.5887.6771 1.4282.9592 2.4284.9592 1.7167 0 2.6686-1.0796 2.6686-1.0796l-.0859.524c-.0324.2004.1254.38.332.38h1.7361c.2749 0 .5092-.1958.5522-.4623l1.0426-6.4537c.0318-.1986-.126-.3789-.3326-.3789zm-2.6875 3.6699c-.1848 1.0773-1.0602 1.8004-2.1752 1.8004-.5587 0-1.0073-.1756-1.2946-.5084-.285-.3305-.3921-.8009-.3026-1.3248.1748-1.068 1.0626-1.8148 2.1605-1.8148.5475 0 .9926.1779 1.2858.5136.2949.3391.4115.8124.3261 1.334z" fill="#179bd7"/><path d="m63.2371 50.1628-1.6526 10.2819c-.0323.1992.1254.3788.3309.3788h1.6613c.2761 0 .5105-.1957.5528-.4623l1.6296-10.0965c.0324-.1992-.1254-.3794-.3309-.3794h-1.8603c-.1642.0006-.3055.118-.3308.2775z" fill="#179bd7"/><path d="m32.4599 40 .7125-4.3695-1.5871-.0355h-7.5785l5.2667-32.2425c.0163-.0973.0695-.1881.1471-.2525.0777-.0645.1771-.1.2806-.1h12.7784c4.2422 0 7.1698.8523 8.6982 2.5346.7166.7892 1.173 1.6139 1.3937 2.5215.2316.9523.2357 2.09.0095 3.4777l-.0163.1013v.8891l.7165.392c.6035.3091 1.0831.6629 1.4509 1.0681.613.6747 1.0094 1.5323 1.177 2.549.173 1.0457.1158 2.29-.1676 3.6987-.3269 1.6205-.8555 3.0318-1.5693 4.1867-.6567 1.0641-1.4931 1.9467-2.4862 2.6306-.9482.6498-2.0748 1.1431-3.3485 1.4587-1.2343.3105-2.6415.467-4.185.467h-.9945c-.7111 0-1.4018.2473-1.944.6905-.5435.4525-.9032 1.0707-1.0135 1.7468l-.075.3932-1.2587 7.7013-.0572.2827c-.015.0895-.0409.1342-.0791.1645-.034.0276-.0831.046-.1307.046z" fill="#253b80"/><path d="m53.6162 12c-.0375.2306-.0804.4664-.1287.7086-1.6589 8.1821-7.3341 11.0086-14.5824 11.0086h-3.6905c-.8865 0-1.6334.6184-1.7716 1.4584l-1.8895 11.5124-.535 3.2633c-.0899.5514.3527 1.0487.932 1.0487h6.5456c.7751 0 1.4335-.5411 1.5556-1.2754l.0643-.3195 1.2324-7.5135.0792-.4123c.1207-.7369.7804-1.278 1.5556-1.278h.9789c6.3418 0 11.3063-2.4735 12.7573-9.6314.6061-2.9902.2923-5.487-1.3116-7.2429-.4854-.5295-1.0875-.9688-1.7916-1.327z" fill="#179bd7"/><path d="m52.2864 11.5556c-.2512-.0688-.5105-.1314-.7764-.1877-.2672-.055-.5411-.1038-.823-.1464-.9865-.1502-2.0674-.2215-3.2254-.2215h-9.7746c-.2407 0-.4694.0513-.6741.1439-.4507.204-.7858.6057-.8669 1.0975l-2.0793 12.3969-.0599.3617c.137-.8159.8775-1.4166 1.7563-1.4166h3.6589c7.186 0 12.8126-2.747 14.4572-10.6937.0492-.2353.0904-.4643.1276-.6883-.4161-.2077-.8668-.3855-1.3521-.5369-.1196-.0375-.2433-.0738-.3683-.1089z" fill="#222d65"/><path d="m35.8619 12.0434c.0816-.5127.4186-.9314.8718-1.1427.2073-.0966.4359-.15.678-.15h9.8305c1.1646 0 2.2517.0743 3.2439.2309.2834.0443.5589.0952.8277.1526.2674.0587.5281.1239.7808.1957.1257.0365.2501.0743.3718.1121.488.1579.9413.3444 1.3598.5597.4921-3.0617-.004-5.1463-1.7008-7.0339-1.8706-2.0781-5.2469-2.9678-9.5671-2.9678h-12.5423c-.8825 0-1.6353.6262-1.7717 1.478l-5.2241 32.3062c-.103.6392.4025 1.2158 1.063 1.2158h7.7433l1.9442-12.0341z" fill="#253b80"/></svg>