<svg fill="none" height="66" viewBox="0 0 80 66" width="80" xmlns="http://www.w3.org/2000/svg"><g fill="#13191a"><path clip-rule="evenodd" d="m60.3056 36.3159c.7066 0 1.2613.242 1.664.726.4028.484.6041 1.157.6041 2.019 0 .8691-.2013 1.5474-.6041 2.035-.4027.4875-.9574.7313-1.664.7313-.3815 0-.7136-.0866-.9962-.2597-.2827-.1731-.5052-.4116-.6677-.7154v3.0948h-1.452v-7.525h1.2824l.053 1.0493c.1554-.3533.3868-.6342.6942-.8426.3073-.2085.6695-.3127 1.0863-.3127zm-.4345 4.3984c.3957 0 .703-.1413.9221-.4239.219-.2826.3285-.6889.3285-1.2189 0-.5299-.1095-.9362-.3285-1.2188-.2191-.2826-.5264-.4239-.9221-.4239-.3533 0-.6394.1218-.8585.3656-.219.2438-.3427.5918-.3709 1.044v.4663c.0282.4452.1519.7914.3709 1.0387.2191.2473.5052.3709.8585.3709zm8.8287.1272c.1483 0 .2684-.0141.3603-.0424l-.106.8797c-.1978.0989-.4275.1484-.6889.1484-.6783 0-1.0846-.265-1.2188-.7949-.1555.2614-.3957.4593-.7207.5935-.3251.1343-.7101.2014-1.1553.2014-.5158 0-.9185-.1166-1.2082-.3498-.2897-.2331-.4346-.5688-.4346-1.0068 0-.8621.6889-1.4203 2.0668-1.6746l1.2718-.2438v-.2544c0-.2826-.0795-.5069-.2385-.673-.159-.166-.3798-.249-.6624-.249-.325 0-.59.0706-.7949.2119-.2049.1414-.3462.371-.4239.6889l-1.1553-.4875c.1131-.4593.3674-.8196.7631-1.081.3957-.2615.9115-.3922 1.5474-.3922.7561 0 1.346.1643 1.77.4928.4239.3286.6359.8144.6359 1.4573v2.1728c0 .1413.0318.2437.0954.3073s.1625.0954.2968.0954zm-3.0736 0c.3108 0 .5952-.0759.8531-.2279.2579-.1519.3869-.3585.3869-.62v-.5511l-1.1341.2544c-.2402.0565-.4186.1324-.5352.2278s-.1749.2279-.1749.3975.053.2985.159.3868c.106.0884.2544.1325.4452.1325zm7.2494 1.2083c-.2614.7207-.5635 1.2259-.9062 1.5156s-.8002.4345-1.3725.4345-1.021-.1378-1.346-.4133l.3603-1.0281c.1131.1272.2385.2137.3763.2597.1378.0459.3091.0688.514.0688.2191 0 .3957-.0459.5299-.1377.1343-.0919.2473-.2579.3392-.4982l.1908-.4557-.5829-1.3778-1.6216-3.9957h1.611l.9962 3.1796.2862 1.0598.3179-1.1234.9751-3.116h1.4732z" fill-rule="evenodd"/><path d="m16.8067 24.5244h-2.9073v8.8993h2.9073z"/><path clip-rule="evenodd" d="m5.14185 30.623v2.801h2.9074z" fill-rule="evenodd"/><path clip-rule="evenodd" d="m12.1619 27.0421v-2.5528h-2.65921z" fill-rule="evenodd"/><path clip-rule="evenodd" d="m7.4464 25.6594c.1418-.8155 1.3119-1.1701 1.3119-1.1701h-.6737c-1.3473 0-3.0846.78-3.0846 2.4819 0 1.56 1.3118 2.3401 2.9073 2.9428 1.0637.39 2.1983.78 2.2692 1.9146.0354 1.1346-1.3828 1.56-1.3828 1.56h.6737c2.1273 0 3.4391-1.0282 3.4391-2.5528 0-1.2409-.4609-2.2691-3.4746-3.4746-1.2764-.4609-2.1273-.7446-1.9855-1.7018z" fill-rule="evenodd"/><path clip-rule="evenodd" d="m43.8944 24.3473c-1.7018.1064-2.7301 1.3828-2.7301 3.971.6028-1.3828 2.2692-1.3828 2.9428-.6027l1.4183-2.9783c-.3901-.3191-1.1346-.4255-1.631-.39z" fill-rule="evenodd"/><path d="m40.4554 24.5244h-2.9073v8.8993h2.9073z"/><g clip-rule="evenodd" fill-rule="evenodd"><path d="m29.287 27.5385c0-2.0564-.9218-3.2265-2.6237-3.2265-1.6309 0-2.73 1.0637-2.801 3.1201.3191-.5318.851-.8509 1.4537-.8509.7091 0 1.0637.4609 1.0637 1.3827v5.4247h2.9073z"/><path d="m23.0468 27.5385c0-2.0564-.9219-3.2265-2.6237-3.2265-1.631 0-2.7301 1.0637-2.801 3.1201.3191-.5318.8509-.8509 1.4537-.8509.7091 0 1.0636.4609 1.0636 1.3827v5.4247h2.9074z"/><path d="m50.5602 31.2965c-.8155 0-1.3118-.5672-1.3118-1.5954v-3.0492h1.6664l1.0282-2.1628h-2.6946v-1.4891h-2.8719v6.8429c0 2.34 1.0991 3.7228 2.9782 3.7228 1.6664 0 2.6946-1.2764 2.6946-3.191-.3191.6028-.8863.9218-1.4891.9218z"/><path d="m35.3142 31.474c-1.0282 0-1.8791-1.0282-1.8791-2.5173s.8509-2.5173 1.8791-2.5173c.6382 0 1.17.3545 1.4182.8509 0-1.6309-1.0636-2.9783-2.6946-2.9783-1.7373 0-3.581 1.631-3.581 4.6092 0 2.9783 1.8437 4.6092 3.581 4.6092 1.631 0 2.6946-1.3473 2.6946-2.9782-.2836.5673-.8154.9218-1.4182.9218z"/><path d="m58.8567 30.41c-.3191.5673-.851.8864-1.4537.8864-.8155 0-1.3118-.6028-1.3118-1.5955v-5.1765h-2.9074v5.3183c0 2.34 1.0991 3.7228 2.9783 3.7228 1.7018 0 2.6946-1.2764 2.6946-3.1555z"/></g><path d="m62.5795 24.5244h-2.9074v8.8993h2.9074z"/><path clip-rule="evenodd" d="m68.8196 27.5385c0-2.0564-.9218-3.2265-2.6237-3.2265-1.6309 0-2.73 1.0637-2.8009 3.1201.319-.5318.8509-.8509 1.4536-.8509.7091 0 1.0637.4609 1.0637 1.3827v5.4247h2.9073z" fill-rule="evenodd"/><path clip-rule="evenodd" d="m75.0597 27.5385c0-2.0564-.9219-3.2265-2.6237-3.2265-1.631 0-2.7301 1.0637-2.801 3.1201.3191-.5318.8509-.8509 1.4537-.8509.7091 0 1.0636.4609 1.0636 1.3827v5.4247h2.9074z" fill-rule="evenodd"/></g></svg>