<svg width="90" height="90" viewBox="0 0 90 90" fill="none" xmlns="http://www.w3.org/2000/svg">
<path d="M80 1H10C5.02944 1 1 5.02944 1 10V80C1 84.9706 5.02944 89 10 89H80C84.9706 89 89 84.9706 89 80V10C89 5.02944 84.9706 1 80 1Z" fill="white"/>
<path fill-rule="evenodd" clip-rule="evenodd" d="M65.3055 48.316C66.0121 48.316 66.5668 48.558 66.9695 49.042C67.3723 49.526 67.5736 50.199 67.5736 51.061C67.5736 51.9301 67.3723 52.6084 66.9695 53.096C66.5668 53.5835 66.0121 53.8273 65.3055 53.8273C64.924 53.8273 64.5919 53.7407 64.3093 53.5676C64.0266 53.3945 63.8041 53.156 63.6416 52.8522V55.947H62.1896V48.422H63.472L63.525 49.4713C63.6804 49.118 63.9118 48.8371 64.2192 48.6287C64.5265 48.4202 64.8887 48.316 65.3055 48.316ZM64.871 52.7144C65.2667 52.7144 65.574 52.5731 65.7931 52.2905C66.0121 52.0079 66.1216 51.6016 66.1216 51.0716C66.1216 50.5417 66.0121 50.1354 65.7931 49.8528C65.574 49.5702 65.2667 49.4289 64.871 49.4289C64.5177 49.4289 64.2316 49.5507 64.0125 49.7945C63.7935 50.0383 63.6698 50.3863 63.6416 50.8385V51.3048C63.6698 51.75 63.7935 52.0962 64.0125 52.3435C64.2316 52.5908 64.5177 52.7144 64.871 52.7144ZM73.6997 52.8416C73.848 52.8416 73.9681 52.8275 74.06 52.7992L73.954 53.6789C73.7562 53.7778 73.5265 53.8273 73.2651 53.8273C72.5868 53.8273 72.1805 53.5623 72.0463 53.0324C71.8908 53.2938 71.6506 53.4917 71.3256 53.6259C71.0005 53.7602 70.6155 53.8273 70.1703 53.8273C69.6545 53.8273 69.2518 53.7107 68.9621 53.4775C68.6724 53.2444 68.5275 52.9087 68.5275 52.4707C68.5275 51.6086 69.2164 51.0504 70.5943 50.7961L71.8661 50.5523V50.2979C71.8661 50.0153 71.7866 49.791 71.6276 49.6249C71.4686 49.4589 71.2478 49.3759 70.9652 49.3759C70.6402 49.3759 70.3752 49.4465 70.1703 49.5878C69.9654 49.7292 69.8241 49.9588 69.7464 50.2767L68.5911 49.7892C68.7042 49.3299 68.9585 48.9696 69.3542 48.7082C69.7499 48.4467 70.2657 48.316 70.9016 48.316C71.6577 48.316 72.2476 48.4803 72.6716 48.8088C73.0955 49.1374 73.3075 49.6232 73.3075 50.2661V52.4389C73.3075 52.5802 73.3393 52.6826 73.4029 52.7462C73.4665 52.8098 73.5654 52.8416 73.6997 52.8416ZM70.6261 52.8416C70.9369 52.8416 71.2213 52.7657 71.4792 52.6137C71.7371 52.4618 71.8661 52.2552 71.8661 51.9937V51.4426L70.732 51.697C70.4918 51.7535 70.3134 51.8294 70.1968 51.9248C70.0802 52.0202 70.0219 52.1527 70.0219 52.3223C70.0219 52.4919 70.0749 52.6208 70.1809 52.7091C70.2869 52.7975 70.4353 52.8416 70.6261 52.8416ZM77.8755 54.0499C77.6141 54.7706 77.312 55.2758 76.9693 55.5655C76.6266 55.8552 76.1691 56 75.5968 56C75.0245 56 74.5758 55.8622 74.2508 55.5867L74.6111 54.5586C74.7242 54.6858 74.8496 54.7723 74.9874 54.8183C75.1252 54.8642 75.2965 54.8871 75.5014 54.8871C75.7205 54.8871 75.8971 54.8412 76.0313 54.7494C76.1656 54.6575 76.2786 54.4915 76.3705 54.2512L76.5613 53.7955L75.9784 52.4177L74.3568 48.422H75.9678L76.964 51.6016L77.2502 52.6614L77.5681 51.538L78.5432 48.422H80.0164L77.8755 54.0499Z" fill="#13191A"/>
<path d="M21.8066 36.5246H18.8993V45.4239H21.8066V36.5246Z" fill="#13191A"/>
<path fill-rule="evenodd" clip-rule="evenodd" d="M10.1418 42.6229V45.4239H13.0492L10.1418 42.6229Z" fill="#13191A"/>
<path fill-rule="evenodd" clip-rule="evenodd" d="M17.162 39.0419V36.4891H14.5028L17.162 39.0419Z" fill="#13191A"/>
<path fill-rule="evenodd" clip-rule="evenodd" d="M12.4464 37.6592C12.5882 36.8437 13.7583 36.4891 13.7583 36.4891H13.0846C11.7373 36.4891 10 37.2691 10 38.971C10 40.531 11.3118 41.3111 12.9073 41.9138C13.971 42.3038 15.1056 42.6938 15.1765 43.8284C15.2119 44.963 13.7937 45.3884 13.7937 45.3884H14.4674C16.5947 45.3884 17.9065 44.3602 17.9065 42.8356C17.9065 41.5947 17.4456 40.5665 14.4319 39.361C13.1555 38.9001 12.3046 38.6164 12.4464 37.6592Z" fill="#13191A"/>
<path fill-rule="evenodd" clip-rule="evenodd" d="M48.8945 36.3473C47.1927 36.4537 46.1644 37.7301 46.1644 40.3183C46.7672 38.9355 48.4336 38.9355 49.1072 39.7156L50.5255 36.7373C50.1354 36.4182 49.3909 36.3118 48.8945 36.3473Z" fill="#13191A"/>
<path d="M45.4553 36.5246H42.548V45.4239H45.4553V36.5246Z" fill="#13191A"/>
<path fill-rule="evenodd" clip-rule="evenodd" d="M34.2869 39.5383C34.2869 37.4819 33.3651 36.3118 31.6632 36.3118C30.0323 36.3118 28.9332 37.3755 28.8622 39.4319C29.1813 38.9001 29.7132 38.581 30.3159 38.581C31.025 38.581 31.3796 39.0419 31.3796 39.9637V45.3884H34.2869V39.5383Z" fill="#13191A"/>
<path fill-rule="evenodd" clip-rule="evenodd" d="M28.0468 39.5383C28.0468 37.4819 27.1249 36.3118 25.4231 36.3118C23.7921 36.3118 22.693 37.3755 22.6221 39.4319C22.9412 38.9001 23.473 38.581 24.0758 38.581C24.7849 38.581 25.1394 39.0419 25.1394 39.9637V45.3884H28.0468V39.5383Z" fill="#13191A"/>
<path fill-rule="evenodd" clip-rule="evenodd" d="M55.5601 43.2965C54.7446 43.2965 54.2483 42.7293 54.2483 41.7011V38.6519H55.9147L56.9429 36.4891H54.2483V35H51.3764V41.8429C51.3764 44.1829 52.4755 45.5657 54.3546 45.5657C56.021 45.5657 57.0492 44.2893 57.0492 42.3747C56.7301 42.9775 56.1629 43.2965 55.5601 43.2965Z" fill="#13191A"/>
<path fill-rule="evenodd" clip-rule="evenodd" d="M40.3143 43.4738C39.2861 43.4738 38.4352 42.4456 38.4352 40.9565C38.4352 39.4674 39.2861 38.4392 40.3143 38.4392C40.9525 38.4392 41.4843 38.7937 41.7325 39.2901C41.7325 37.6592 40.6689 36.3118 39.0379 36.3118C37.3006 36.3118 35.4569 37.9428 35.4569 40.921C35.4569 43.8993 37.3006 45.5302 39.0379 45.5302C40.6689 45.5302 41.7325 44.1829 41.7325 42.552C41.4489 43.1193 40.9171 43.4738 40.3143 43.4738Z" fill="#13191A"/>
<path fill-rule="evenodd" clip-rule="evenodd" d="M63.8567 42.4102C63.5376 42.9775 63.0057 43.2966 62.403 43.2966C61.5875 43.2966 61.0912 42.6938 61.0912 41.7011V36.5246H58.1838V41.8429C58.1838 44.1829 59.2829 45.5657 61.1621 45.5657C62.8639 45.5657 63.8567 44.2893 63.8567 42.4102Z" fill="#13191A"/>
<path d="M67.5795 36.5246H64.6721V45.4239H67.5795V36.5246Z" fill="#13191A"/>
<path fill-rule="evenodd" clip-rule="evenodd" d="M73.8196 39.5383C73.8196 37.4819 72.8978 36.3118 71.1959 36.3118C69.565 36.3118 68.4659 37.3755 68.395 39.4319C68.714 38.9001 69.2459 38.581 69.8486 38.581C70.5577 38.581 70.9123 39.0419 70.9123 39.9637V45.3884H73.8196V39.5383Z" fill="#13191A"/>
<path fill-rule="evenodd" clip-rule="evenodd" d="M80.0598 39.5383C80.0598 37.4819 79.1379 36.3118 77.4361 36.3118C75.8051 36.3118 74.706 37.3755 74.6351 39.4319C74.9542 38.9001 75.486 38.581 76.0888 38.581C76.7979 38.581 77.1524 39.0419 77.1524 39.9637V45.3884H80.0598V39.5383Z" fill="#13191A"/>
</svg>
