<svg fill="none" height="66" viewBox="0 0 80 66" width="80" xmlns="http://www.w3.org/2000/svg"><path d="m46.9894 8.2002c-4.2176 0-7.9866 2.1468-7.9866 6.1131 0 4.5486 6.6846 4.8628 6.6846 7.1479 0 .9622-1.1228 1.8235-3.0405 1.8235-2.7217 0-4.7559-1.2035-4.7559-1.2035l-.8704 4.0024s2.3433 1.0166 5.4544 1.0166c4.6112 0 8.2397-2.2522 8.2397-6.2863 0-4.8065-6.7124-5.1113-6.7124-7.2322 0-.7538.9218-1.5796 2.834-1.5796 2.1576 0 3.9179.8752 3.9179.8752l.8518-3.86571s-1.9154-.81139-4.6166-.81139zm-38.58715.29179-.1022.5835s1.77435.3189 3.37245.95501c2.0577.7294 2.2043 1.1541 2.5508 2.473l3.7764 14.2958h5.0622l7.7986-18.30731h-5.0505l-5.0112 12.44721-2.0448-10.5509c-.1875-1.20751-1.1374-1.89631-2.3001-1.89631zm24.48915 0-3.9619 18.30731h4.8162l3.948-18.30731zm26.8614 0c-1.1613 0-1.7766.6105-2.2281 1.67751l-7.0559 16.6298h5.0504l.9772-2.7716h6.1531l.5942 2.7716h4.4565l-3.8878-18.30731zm.6569 4.94611 1.497 6.8698h-4.0107z" fill="#1434cb"/><path d="m34.2141 39.2773h11.7211v21.1515h-11.7211z" fill="#ff5f00"/><path d="m34.9583 49.8536c0-4.2976 2.0093-8.1093 5.0977-10.5757-2.2698-1.7938-5.1349-2.8775-8.2606-2.8775-7.4047 0-13.3955 6.0165-13.3955 13.4532s5.9908 13.4533 13.3955 13.4533c3.1257 0 5.9908-1.0838 8.2606-2.8775-3.0884-2.4291-5.0977-6.2782-5.0977-10.5758z" fill="#eb001b"/><path d="m61.7496 49.8532c0 7.4366-5.9908 13.4532-13.3955 13.4532-3.1257 0-5.9908-1.0837-8.2606-2.8775 3.1256-2.4664 5.0977-6.2782 5.0977-10.5757 0-4.2976-2.0093-8.1093-5.0977-10.5758 2.2698-1.7937 5.1349-2.8775 8.2606-2.8775 7.4047 0 13.3955 6.054 13.3955 13.4533z" fill="#f79e1b"/></svg>