<svg fill="none" height="90" viewBox="0 0 90 90" width="90" xmlns="http://www.w3.org/2000/svg"><rect fill="#fff" height="88" rx="9" width="88" x="1" y="1"/><path d="m51.9894 20.2c-4.2176 0-7.9867 2.1468-7.9867 6.1131 0 4.5486 6.6846 4.8628 6.6846 7.1479 0 .9622-1.1228 1.8235-3.0405 1.8235-2.7217 0-4.7558-1.2035-4.7558-1.2035l-.8704 4.0024s2.3433 1.0166 5.4544 1.0166c4.6112 0 8.2397-2.2522 8.2397-6.2863 0-4.8065-6.7124-5.1113-6.7124-7.2322 0-.7538.9217-1.5796 2.8339-1.5796 2.1576 0 3.918.8752 3.918.8752l.8518-3.8657s-1.9154-.8114-4.6166-.8114zm-38.5872.2918-.1022.5835s1.7744.3189 3.3725.955c2.0577.7294 2.2043 1.1541 2.5508 2.473l3.7764 14.2958h5.0622l7.7986-18.3073h-5.0505l-5.0112 12.4472-2.0448-10.5509c-.1875-1.2075-1.1374-1.8963-2.3001-1.8963zm24.4892 0-3.962 18.3073h4.8162l3.9481-18.3073zm26.8614 0c-1.1613 0-1.7767.6105-2.2282 1.6775l-7.0559 16.6298h5.0505l.9772-2.7716h6.1531l.5942 2.7716h4.4564l-3.8878-18.3073zm.6569 4.9461 1.497 6.8698h-4.0107z" fill="#1434cb"/><path d="m39.214 51.2775h11.7211v21.1515h-11.7211z" fill="#ff5f00"/><path d="m39.9584 61.8537c0-4.2976 2.0093-8.1093 5.0977-10.5757-2.2698-1.7938-5.1349-2.8775-8.2606-2.8775-7.4047 0-13.3955 6.0165-13.3955 13.4532s5.9908 13.4533 13.3955 13.4533c3.1257 0 5.9908-1.0838 8.2606-2.8775-3.0884-2.4291-5.0977-6.2782-5.0977-10.5758z" fill="#eb001b"/><path d="m66.7495 61.8533c0 7.4366-5.9908 13.4532-13.3955 13.4532-3.1257 0-5.9908-1.0837-8.2606-2.8775 3.1256-2.4664 5.0977-6.2782 5.0977-10.5757 0-4.2976-2.0093-8.1093-5.0977-10.5758 2.2698-1.7937 5.1349-2.8775 8.2606-2.8775 7.4047 0 13.3955 6.054 13.3955 13.4533z" fill="#f79e1b"/><rect height="88" rx="9" stroke="#fff" stroke-width="2" width="88" x="1" y="1"/></svg>